<svg width="21" height="21" viewBox="0 0 21 21" fill="none" xmlns="http://www.w3.org/2000/svg">
<g opacity="0.5">
<path d="M8.80785 18.9759C8.08656 18.944 7.35583 18.8551 6.66571 18.6469C6.07139 18.4529 5.85028 18.0744 5.82826 17.4465C5.83287 15.4612 5.36196 13.3383 5.93415 11.4092C6.2208 10.6254 7.0809 10.7744 7.75717 10.7295C9.75812 10.6277 11.7563 10.6913 13.7584 10.7274C11.7942 9.58097 9.80515 8.4724 7.81094 7.37685C6.58689 6.72245 7.47489 5.26876 7.9432 4.39065C8.59843 3.33147 10.1703 4.67468 10.9579 5.01613C11.0162 1.49412 15.4585 1.85487 14.8048 6.67683C17.8757 2.88035 21.3918 7.17429 18.0942 9.27493C18.731 9.81593 20.1067 10.2142 19.63 11.2772C19.4141 11.7847 19.1408 12.2734 18.8765 12.7572C18.7637 13.052 18.4841 13.143 18.2418 13.2672C18.0429 13.3269 17.8286 13.2031 17.6422 13.0872C17.5936 14.4499 18.3608 18.6967 16.311 18.6847C15.4925 18.7074 14.6739 18.7226 13.8559 18.7539C12.1733 18.8243 10.4904 18.9311 8.80785 18.9759ZM12.8877 17.8428C13.9894 17.8225 15.0952 17.7753 16.1974 17.7487C16.4962 17.7404 16.5659 17.7182 16.6273 17.4276C16.9814 15.8441 16.6199 14.2057 16.6934 12.6043C16.722 12.5047 16.6858 12.46 16.6081 12.4114C16.1607 12.132 15.7128 11.853 15.2714 11.5643C15.0646 11.4289 14.8625 11.3549 14.6013 11.3727C14.0038 11.4322 13.4063 11.3641 12.8118 11.4422C12.837 13.5701 12.8623 15.6994 12.8877 17.8428ZM9.83923 11.4008C8.95934 11.4433 8.08817 11.4158 7.222 11.5462C6.81473 11.6227 6.79598 11.6267 6.6898 12.0016C6.62751 12.6673 6.5927 13.3446 6.59542 14.0128C6.61962 15.1637 6.69185 16.3135 6.73805 17.464C6.74386 17.6086 6.79738 17.7048 6.92973 17.7465C7.92257 18.0798 9.00397 18.0347 10.0316 17.9838C10.0415 15.7908 10.1335 13.6057 9.83923 11.4008ZM11.7343 8.63588C12.0296 8.11223 12.3192 7.59881 12.6132 7.07752C11.3543 6.35565 10.1268 5.54675 8.80912 4.93694C8.72236 4.89842 8.6717 4.92225 8.63209 5.00916C8.51616 5.26357 8.38353 5.51084 8.27779 5.76923C8.22181 6.01551 7.97014 6.40031 8.2694 6.56936C9.42368 7.26287 10.5555 7.9818 11.7343 8.63588ZM15.2832 8.66474C14.9895 9.15661 14.7015 9.63884 14.4255 10.1011C15.6282 10.8523 16.8251 11.5999 18.0223 12.3477C18.1455 12.1718 18.9842 10.9857 18.7274 10.7964C17.5833 10.085 16.4371 9.3597 15.2832 8.66474ZM15.2119 7.53929C15.6967 7.85029 16.2079 8.09603 16.6769 8.42603C16.9685 8.62875 17.2137 8.63573 17.5138 8.47111C19.0696 7.88162 18.5823 5.58694 16.8339 6.25538C16.1966 6.55499 15.7441 7.08479 15.2119 7.53929ZM13.9342 6.79081C13.9835 5.8272 14.1329 4.74314 13.5037 3.95277C13.0276 3.41807 12.1946 3.63234 12.0458 4.45535C11.9428 4.84686 12.0526 5.23547 12.0795 5.62505C12.6262 6.07147 13.3153 6.37952 13.9342 6.79081ZM10.7616 11.384C10.8494 13.5828 10.98 15.7638 10.7216 17.9537C10.8756 17.9461 10.9816 17.941 11.0868 17.9358C11.1806 15.7604 11.1237 13.5616 11.0312 11.384C10.9419 11.384 10.8726 11.384 10.7616 11.384ZM13.3757 7.53708C13.0603 8.03877 12.7499 8.5325 12.435 9.0333C12.5249 9.08499 12.6121 9.13512 12.6761 9.1719C12.9625 8.65175 13.2435 8.14142 13.5283 7.62435C13.471 7.5916 13.421 7.56301 13.3757 7.53708Z" fill="black"/>
<path d="M0.877031 12.3653C0.873363 12.1253 0.999648 11.9576 1.18601 11.83C2.32637 11.0268 3.48619 10.2564 4.70865 9.58292C5.34202 9.10648 6.04485 9.80868 5.40289 10.3182C4.20447 11.0911 3.03319 11.9042 1.86142 12.7167C1.51982 13.0297 0.873085 12.8832 0.877031 12.3653Z" fill="black"/>
<path d="M5.12339 5.91782C5.12697 6.17365 5.05445 6.30671 4.9073 6.39029C4.63262 6.56419 4.36169 6.34497 4.2033 6.1214C3.89782 5.71156 3.60154 5.29482 3.2991 4.88268C2.74234 4.12397 2.18163 3.3681 1.6278 2.60724C1.40987 2.34326 1.28822 1.89834 1.62611 1.68433C1.9027 1.47976 2.24417 1.63569 2.42019 1.89236C2.90026 2.58048 3.3749 3.27238 3.85112 3.96319C4.25857 4.59893 4.81254 5.2397 5.12339 5.91782Z" fill="black"/>
<path d="M2.32665 6.72367C2.84599 6.86143 3.52082 7.07282 4.06058 7.2417C4.84154 7.372 4.82541 8.23474 4.12035 8.23388C3.40085 8.12572 2.68346 7.93412 1.99302 7.70927C1.46022 7.42783 1.64381 6.68029 2.32665 6.72367Z" fill="black"/>
<path d="M6.57372 5.06673C6.60523 5.5169 5.95401 5.71855 5.78157 5.28539C5.66082 4.94312 5.56383 4.58883 5.49852 4.23196C5.43057 3.74338 6.17282 3.55837 6.35296 4.02958C6.45904 4.36232 6.51371 4.72213 6.57372 5.06673Z" fill="black"/>
<path d="M12.8884 17.8428C12.863 15.6993 12.8377 13.57 12.8125 11.4421C13.4068 11.3639 14.0046 11.4321 14.602 11.3726C14.8632 11.3549 15.0653 11.4289 15.2721 11.5642C15.7135 11.853 16.1613 12.1319 16.6087 12.4114C16.6865 12.4599 16.7227 12.5047 16.694 12.6043C16.6206 14.2057 16.982 15.844 16.6281 17.4276C16.5666 17.7181 16.4968 17.7403 16.1981 17.7486C15.096 17.7752 13.9901 17.8225 12.8884 17.8428Z" fill="black"/>
<path d="M9.83962 11.4007C10.1339 13.6056 10.0419 15.7907 10.032 17.9837C9.00438 18.0346 7.92294 18.0795 6.93012 17.7464C6.79779 17.7047 6.74425 17.6085 6.73846 17.4639C6.69226 16.3134 6.62005 15.1636 6.59586 14.0127C6.59309 13.3444 6.62792 12.6671 6.69016 12.0014C6.79635 11.6265 6.81512 11.6226 7.22239 11.5461C8.0886 11.4157 8.95966 11.4432 9.83962 11.4007Z" fill="black"/>
<path d="M11.736 8.63574C10.5573 7.98168 9.4254 7.26271 8.27121 6.56924C7.85306 6.353 8.51874 5.33129 8.63381 5.00904C8.66696 4.56213 12.1592 6.86882 12.6149 7.07738C12.3209 7.59867 12.0314 8.11209 11.736 8.63574Z" fill="black"/>
<path d="M15.2854 8.66455C16.4393 9.35952 17.5855 10.0848 18.7296 10.7962C18.9896 10.9789 18.1454 12.1753 18.0245 12.3475C16.8273 11.5997 15.6304 10.8521 14.4277 10.1009C14.7037 9.63867 14.9917 9.15643 15.2854 8.66455Z" fill="black"/>
<path d="M10.7625 11.3839C10.8736 11.3839 10.9429 11.3839 11.0322 11.3839C11.1247 13.5615 11.1816 15.7603 11.0878 17.9357C10.9826 17.9408 10.8767 17.946 10.7227 17.9535C10.981 15.7637 10.8504 13.5827 10.7625 11.3839Z" fill="black"/>
<path d="M13.3762 7.53705C13.4216 7.563 13.4715 7.59157 13.5288 7.62432C13.2441 8.14138 12.963 8.65171 12.6766 9.17186C12.6126 9.13508 12.5254 9.08496 12.4355 9.03327C12.7504 8.53246 13.0608 8.03873 13.3762 7.53705Z" fill="black"/>
</g>
</svg>
