<svg width="16" height="16" viewBox="0 0 16 16" fill="none" xmlns="http://www.w3.org/2000/svg">
<path fill-rule="evenodd" clip-rule="evenodd" d="M14.6667 4.66665C14.6667 6.50759 13.1743 7.99998 11.3333 7.99998C10.8001 7.99998 10.2961 7.87478 9.8492 7.65218C9.7304 7.59298 9.59467 7.57331 9.46647 7.60758L8.72447 7.80611C8.40233 7.89231 8.10767 7.59765 8.19387 7.27551L8.3924 6.53352C8.42667 6.40533 8.407 6.26958 8.3478 6.15081C8.1252 5.70386 8 5.19987 8 4.66665C8 2.8257 9.4924 1.33331 11.3333 1.33331C13.1743 1.33331 14.6667 2.8257 14.6667 4.66665ZM11.3333 3.20831C11.6785 3.20831 11.9583 3.48813 11.9583 3.83331V4.04165H12.1667C12.5119 4.04165 12.7917 4.32147 12.7917 4.66665C12.7917 5.01183 12.5119 5.29165 12.1667 5.29165H11.9583V5.49998C11.9583 5.84516 11.6785 6.12498 11.3333 6.12498C10.9881 6.12498 10.7083 5.84516 10.7083 5.49998V5.29165H10.5C10.1548 5.29165 9.875 5.01183 9.875 4.66665C9.875 4.32147 10.1548 4.04165 10.5 4.04165H10.7083V3.83331C10.7083 3.48813 10.9881 3.20831 11.3333 3.20831Z" fill="white"/>
<path d="M5.35837 4.87745L5.79105 5.65273C6.18151 6.35239 6.02477 7.2702 5.40979 7.8852C5.40979 7.8852 4.6639 8.6312 6.01632 9.98367C7.36831 11.3357 8.11478 10.5902 8.11478 10.5902C8.72978 9.9752 9.64758 9.81847 10.3472 10.2089L11.1225 10.6416C12.179 11.2312 12.3038 12.7128 11.3752 13.6415C10.8172 14.1995 10.1336 14.6337 9.37791 14.6623C8.10585 14.7105 5.9455 14.3886 3.77845 12.2215C1.6114 10.0545 1.28945 7.89413 1.33768 6.62206C1.36633 5.8664 1.80051 5.18282 2.35852 4.62482C3.28715 3.69619 4.76876 3.82096 5.35837 4.87745Z" fill="white"/>
</svg>
