<svg width="11" height="11" viewBox="0 0 11 11" fill="none" xmlns="http://www.w3.org/2000/svg">
<path d="M10.5132 9.13339C10.6844 9.31851 10.7772 9.56269 10.7723 9.81476C10.7674 10.0668 10.6652 10.3072 10.487 10.4855C10.3088 10.6639 10.0684 10.7663 9.81637 10.7714C9.56431 10.7765 9.32007 10.6838 9.13483 10.5128L5.41356 6.79149L1.6923 10.5128C1.60311 10.6092 1.49535 10.6867 1.37548 10.7405C1.25562 10.7943 1.12612 10.8234 0.994756 10.826C0.863389 10.8285 0.73286 10.8045 0.610995 10.7554C0.48913 10.7063 0.378441 10.633 0.285565 10.5401C0.192689 10.4472 0.11954 10.3364 0.0705031 10.2145C0.0214667 10.0926 -0.00244651 9.96208 0.000197621 9.83072C0.00284175 9.69935 0.0319887 9.56987 0.0858906 9.45005C0.139793 9.33022 0.217339 9.22251 0.31388 9.13339L4.03514 5.41212L0.31388 1.69276C0.217339 1.60363 0.139793 1.49592 0.0858906 1.3761C0.0319887 1.25627 0.00284175 1.12679 0.000197621 0.995426C-0.00244651 0.864061 0.0214667 0.733515 0.0705031 0.611617C0.11954 0.489719 0.192689 0.378979 0.285565 0.286039C0.378441 0.193099 0.48913 0.119874 0.610995 0.0707534C0.73286 0.0216333 0.863389 -0.00236952 0.994756 0.000184359C1.12612 0.00273824 1.25562 0.0317961 1.37548 0.0856157C1.49535 0.139435 1.60311 0.216908 1.6923 0.313387L5.41356 4.0337L9.13483 0.31244C9.32007 0.141424 9.56431 0.0487405 9.81637 0.0538141C10.0684 0.0588876 10.3088 0.161323 10.487 0.339656C10.6652 0.517988 10.7674 0.758374 10.7723 1.01044C10.7772 1.2625 10.6844 1.50668 10.5132 1.69181L6.79199 5.41212L10.5132 9.13339Z" fill="white"/>
</svg>
