<svg width="28" height="28" viewBox="0 0 28 28" fill="none" xmlns="http://www.w3.org/2000/svg">
<g id="Frame">
<g id="SVGRepo_iconCarrier">
<path id="Vector" d="M11.9798 25.805C10.999 25.7617 10.0053 25.6408 9.06676 25.3577C8.25855 25.0939 7.95787 24.5791 7.92791 23.7252C7.93419 21.0254 7.2938 18.1385 8.07191 15.5152C8.46172 14.4493 9.63136 14.652 10.551 14.5909C13.2721 14.4525 15.9894 14.5389 18.7121 14.588C16.041 13.029 13.3361 11.5215 10.6241 10.0316C8.95957 9.14173 10.1672 7.16487 10.804 5.97073C11.6951 4.53037 13.8326 6.35699 14.9037 6.82132C14.9829 2.03177 21.024 2.52235 20.135 9.0797C24.3112 3.9169 29.0926 9.75619 24.6082 12.6128C25.4743 13.3485 27.345 13.8902 26.6968 15.3356C26.4032 16.0258 26.0316 16.6905 25.6722 17.3483C25.5187 17.7492 25.1385 17.873 24.809 18.0419C24.5385 18.123 24.2471 17.9547 23.9936 17.7971C23.9275 19.6502 24.9708 25.4254 22.1833 25.4091C21.0703 25.4399 19.957 25.4606 18.8446 25.5032C16.5565 25.5989 14.2679 25.7442 11.9798 25.805ZM17.5279 24.2642C19.0262 24.2366 20.53 24.1724 22.0289 24.1362C22.4351 24.1249 22.5299 24.0947 22.6135 23.6996C23.0949 21.5462 22.6034 19.3182 22.7033 17.1405C22.7422 17.005 22.693 16.9442 22.5873 16.8781C21.9788 16.4981 21.3698 16.1188 20.7696 15.726C20.4883 15.542 20.2135 15.4414 19.8582 15.4656C19.0457 15.5465 18.2333 15.4538 17.4248 15.56C17.4591 18.4537 17.4934 21.3494 17.5279 24.2642ZM13.3824 15.5038C12.1858 15.5616 11.0011 15.5242 9.82325 15.7015C9.26941 15.8055 9.24392 15.811 9.09951 16.3207C9.01481 17.2261 8.96747 18.1471 8.97118 19.0558C9.00408 20.6209 9.10231 22.1845 9.16514 23.7491C9.17304 23.9457 9.24581 24.0765 9.4258 24.1332C10.776 24.5864 12.2465 24.5251 13.644 24.4559C13.6574 21.4738 13.7826 18.5022 13.3824 15.5038ZM15.9595 11.7438C16.3611 11.0317 16.7549 10.3335 17.1547 9.62459C15.4428 8.64292 13.7734 7.5429 11.9816 6.71364C11.8636 6.66125 11.7947 6.69366 11.7408 6.81184C11.5832 7.15782 11.4028 7.49408 11.259 7.84545C11.1829 8.18037 10.8406 8.70365 11.2476 8.93354C12.8173 9.87665 14.3565 10.8543 15.9595 11.7438ZM20.7856 11.783C20.3862 12.4519 19.9946 13.1077 19.6192 13.7363C21.2547 14.7578 22.8824 15.7745 24.5105 16.7914C24.6781 16.5522 25.8185 14.9393 25.4694 14.6819C23.9135 13.7144 22.3548 12.7281 20.7856 11.783ZM20.6887 10.2525C21.348 10.6755 22.0431 11.0097 22.6809 11.4584C23.0774 11.7341 23.4109 11.7436 23.819 11.5197C25.9347 10.7181 25.272 7.59756 22.8944 8.50657C22.0278 8.914 21.4123 9.63447 20.6887 10.2525ZM18.9511 9.23469C19.0182 7.92429 19.2213 6.45009 18.3657 5.37527C17.7182 4.64814 16.5855 4.93952 16.3831 6.05873C16.243 6.59114 16.3923 7.11961 16.429 7.64939C17.1723 8.25647 18.1094 8.67539 18.9511 9.23469ZM14.6367 15.481C14.7561 18.4711 14.9337 21.437 14.5824 24.4149C14.7918 24.4047 14.9358 24.3977 15.079 24.3907C15.2065 21.4323 15.1291 18.4423 15.0033 15.481C14.8819 15.481 14.7877 15.481 14.6367 15.481ZM18.1916 10.2495C17.7627 10.9318 17.3406 11.6032 16.9124 12.2842C17.0347 12.3545 17.1532 12.4227 17.2402 12.4727C17.6297 11.7654 18.0119 11.0714 18.3991 10.3682C18.3212 10.3237 18.2533 10.2848 18.1916 10.2495Z" fill="black"/>
<path id="Vector_2" d="M1.19347 16.8153C1.18848 16.489 1.36021 16.261 1.61364 16.0874C3.16441 14.9952 4.74163 13.9476 6.40404 13.0317C7.26536 12.3837 8.22112 13.3387 7.34814 14.0316C5.71842 15.0826 4.1256 16.1884 2.53213 17.2932C2.06759 17.7189 1.1881 17.5196 1.19347 16.8153Z" fill="black"/>
<path id="Vector_3" d="M6.96837 8.04753C6.97325 8.39543 6.87463 8.57638 6.67452 8.69004C6.30098 8.92653 5.93255 8.62841 5.71715 8.32438C5.30173 7.76703 4.89882 7.20033 4.48755 6.63986C3.73041 5.60809 2.9679 4.5802 2.21476 3.54551C1.9184 3.18652 1.75297 2.58148 2.21246 2.29045C2.58859 2.01226 3.05295 2.2243 3.29232 2.57334C3.94516 3.50911 4.59062 4.45002 5.23824 5.38945C5.79232 6.25398 6.54566 7.12537 6.96837 8.04753Z" fill="black"/>
<path id="Vector_4" d="M3.16599 9.14346C3.87224 9.33079 4.78994 9.61826 5.52394 9.84792C6.58596 10.0251 6.56403 11.1983 5.60523 11.1972C4.62678 11.0501 3.65121 10.7895 2.7123 10.4838C1.98774 10.101 2.2374 9.08445 3.16599 9.14346Z" fill="black"/>
<path id="Vector_5" d="M8.93979 6.89018C8.98264 7.50236 8.09705 7.77659 7.86255 7.18754C7.69834 6.7221 7.56645 6.24029 7.47764 5.75499C7.38524 5.09057 8.39461 4.83898 8.63958 5.47977C8.78384 5.93226 8.85818 6.42156 8.93979 6.89018Z" fill="black"/>
<path id="Vector_6" d="M17.5285 24.2642C17.4939 21.3493 17.4596 18.4537 17.4253 15.56C18.2335 15.4536 19.0464 15.5465 19.8588 15.4655C20.214 15.4414 20.4888 15.542 20.7701 15.726C21.3703 16.1187 21.9793 16.4981 22.5878 16.8781C22.6935 16.9442 22.7427 17.005 22.7038 17.1404C22.604 19.3181 23.0954 21.5461 22.614 23.6996C22.5304 24.0947 22.4356 24.1249 22.0294 24.1361C20.5306 24.1724 19.0267 24.2366 17.5285 24.2642Z" fill="black"/>
<path id="Vector_7" d="M13.3826 15.5037C13.7827 18.5021 13.6576 21.4736 13.6442 24.4558C12.2467 24.5251 10.7761 24.5861 9.42596 24.1331C9.246 24.0764 9.1732 23.9455 9.16533 23.7489C9.1025 22.1844 9.0043 20.6208 8.9714 19.0557C8.96764 18.1469 9.015 17.2259 9.09965 16.3206C9.24405 15.8108 9.26957 15.8054 9.82342 15.7014C11.0014 15.524 12.1859 15.5615 13.3826 15.5037Z" fill="black"/>
<path id="Vector_8" d="M15.9598 11.7437C14.3569 10.8542 12.8176 9.87652 11.248 8.93347C10.6794 8.63941 11.5847 7.25 11.7411 6.81177C11.7862 6.20403 16.5353 9.34087 17.155 9.62449C16.7552 10.3334 16.3614 11.0316 15.9598 11.7437Z" fill="black"/>
<path id="Vector_9" d="M20.786 11.7828C22.3552 12.7279 23.9138 13.7142 25.4697 14.6816C25.8232 14.9301 24.6752 16.5571 24.5109 16.7912C22.8828 15.7743 21.2551 14.7576 19.6196 13.7361C19.995 13.1075 20.3866 12.4517 20.786 11.7828Z" fill="black"/>
<path id="Vector_10" d="M14.6368 15.4808C14.7879 15.4808 14.882 15.4808 15.0034 15.4808C15.1292 18.4421 15.2067 21.4322 15.0791 24.3905C14.936 24.3975 14.7919 24.4046 14.5825 24.4148C14.9338 21.4368 14.7562 18.4709 14.6368 15.4808Z" fill="black"/>
<path id="Vector_11" d="M18.1918 10.2496C18.2535 10.2849 18.3214 10.3237 18.3993 10.3683C18.0121 11.0714 17.6299 11.7654 17.2404 12.4727C17.1534 12.4227 17.0348 12.3546 16.9126 12.2843C17.3408 11.6032 17.7629 10.9318 18.1918 10.2496Z" fill="black"/>
</g>
</g>
</svg>
