<svg width="28" height="28" viewBox="0 0 28 28" fill="none" xmlns="http://www.w3.org/2000/svg">
<g id="Frame">
<g id="SVGRepo_iconCarrier">
<path id="Vector" d="M11.9801 25.805C10.9992 25.7617 10.0055 25.6408 9.067 25.3577C8.25879 25.0939 7.95811 24.5791 7.92816 23.7252C7.93443 21.0254 7.29405 18.1385 8.07215 15.5152C8.46197 14.4493 9.63161 14.652 10.5513 14.5909C13.2723 14.4525 15.9896 14.5389 18.7123 14.588C16.0412 13.029 13.3363 11.5215 10.6244 10.0316C8.95981 9.14173 10.1674 7.16487 10.8043 5.97073C11.6953 4.53037 13.8329 6.35699 14.904 6.82132C14.9831 2.03177 21.0242 2.52235 20.1353 9.0797C24.3114 3.9169 29.0929 9.75619 24.6085 12.6128C25.4745 13.3485 27.3452 13.8902 26.697 15.3356C26.4034 16.0258 26.0318 16.6905 25.6724 17.3483C25.519 17.7492 25.1388 17.873 24.8093 18.0419C24.5388 18.123 24.2473 17.9547 23.9938 17.7971C23.9278 19.6502 24.9711 25.4254 22.1835 25.4091C21.0705 25.4399 19.9573 25.4606 18.8448 25.5032C16.5567 25.5989 14.2681 25.7442 11.9801 25.805ZM17.5282 24.2642C19.0265 24.2366 20.5302 24.1724 22.0291 24.1362C22.4353 24.1249 22.5302 24.0947 22.6137 23.6996C23.0951 21.5462 22.6037 19.3182 22.7036 17.1405C22.7424 17.005 22.6933 16.9442 22.5875 16.8781C21.9791 16.4981 21.3701 16.1188 20.7698 15.726C20.4886 15.542 20.2137 15.4414 19.8585 15.4656C19.046 15.5465 18.2335 15.4538 17.425 15.56C17.4593 18.4537 17.4937 21.3494 17.5282 24.2642ZM13.3826 15.5038C12.1861 15.5616 11.0014 15.5242 9.8235 15.7015C9.26965 15.8055 9.24416 15.811 9.09976 16.3207C9.01506 17.2261 8.96772 18.1471 8.97142 19.0558C9.00432 20.6209 9.10256 22.1845 9.16538 23.7491C9.17328 23.9457 9.24605 24.0765 9.42604 24.1332C10.7762 24.5864 12.2468 24.5251 13.6442 24.4559C13.6577 21.4738 13.7828 18.5022 13.3826 15.5038ZM15.9597 11.7438C16.3614 11.0317 16.7551 10.3335 17.1549 9.62459C15.443 8.64292 13.7737 7.5429 11.9818 6.71364C11.8638 6.66125 11.7949 6.69366 11.7411 6.81184C11.5834 7.15782 11.403 7.49408 11.2593 7.84545C11.1831 8.18037 10.8409 8.70365 11.2479 8.93354C12.8175 9.87665 14.3567 10.8543 15.9597 11.7438ZM20.7859 11.783C20.3864 12.4519 19.9948 13.1077 19.6195 13.7363C21.255 14.7578 22.8826 15.7745 24.5107 16.7914C24.6783 16.5522 25.8188 14.9393 25.4696 14.6819C23.9138 13.7144 22.355 12.7281 20.7859 11.783ZM20.6889 10.2525C21.3482 10.6755 22.0433 11.0097 22.6811 11.4584C23.0776 11.7341 23.4112 11.7436 23.8192 11.5197C25.935 10.7181 25.2722 7.59756 22.8947 8.50657C22.028 8.914 21.4126 9.63447 20.6889 10.2525ZM18.9514 9.23469C19.0184 7.92429 19.2215 6.45009 18.366 5.37527C17.7184 4.64814 16.5857 4.93952 16.3834 6.05873C16.2433 6.59114 16.3926 7.11961 16.4292 7.64939C17.1726 8.25647 18.1097 8.67539 18.9514 9.23469ZM14.6369 15.481C14.7564 18.4711 14.934 21.437 14.5826 24.4149C14.792 24.4047 14.9361 24.3977 15.0792 24.3907C15.2068 21.4323 15.1293 18.4423 15.0035 15.481C14.8821 15.481 14.788 15.481 14.6369 15.481ZM18.1918 10.2495C17.7629 10.9318 17.3408 11.6032 16.9127 12.2842C17.0349 12.3545 17.1534 12.4227 17.2404 12.4727C17.63 11.7654 18.0121 11.0714 18.3994 10.3682C18.3215 10.3237 18.2535 10.2848 18.1918 10.2495Z" fill="white"/>
<path id="Vector_2" d="M1.19347 16.8153C1.18848 16.489 1.36021 16.261 1.61364 16.0874C3.16441 14.9952 4.74163 13.9476 6.40404 13.0317C7.26536 12.3837 8.22112 13.3387 7.34814 14.0316C5.71842 15.0826 4.1256 16.1884 2.53213 17.2932C2.06759 17.7189 1.1881 17.5196 1.19347 16.8153Z" fill="white"/>
<path id="Vector_3" d="M6.96837 8.04753C6.97325 8.39543 6.87463 8.57638 6.67452 8.69004C6.30098 8.92653 5.93255 8.62841 5.71715 8.32438C5.30173 7.76703 4.89882 7.20033 4.48755 6.63986C3.73041 5.60809 2.9679 4.5802 2.21476 3.54551C1.9184 3.18652 1.75297 2.58148 2.21246 2.29045C2.58859 2.01226 3.05295 2.2243 3.29232 2.57334C3.94516 3.50911 4.59062 4.45002 5.23824 5.38945C5.79232 6.25398 6.54566 7.12537 6.96837 8.04753Z" fill="white"/>
<path id="Vector_4" d="M3.16599 9.14346C3.87224 9.33079 4.78994 9.61826 5.52394 9.84792C6.58596 10.0251 6.56403 11.1983 5.60523 11.1972C4.62678 11.0501 3.65121 10.7895 2.7123 10.4838C1.98774 10.101 2.2374 9.08445 3.16599 9.14346Z" fill="white"/>
<path id="Vector_5" d="M8.93979 6.89018C8.98264 7.50236 8.09705 7.77659 7.86255 7.18754C7.69834 6.7221 7.56645 6.24029 7.47764 5.75499C7.38524 5.09057 8.39461 4.83898 8.63958 5.47977C8.78384 5.93226 8.85818 6.42156 8.93979 6.89018Z" fill="white"/>
<path id="Vector_6" d="M17.5282 24.2642C17.4937 21.3493 17.4593 18.4537 17.425 15.56C18.2333 15.4536 19.0462 15.5465 19.8585 15.4655C20.2138 15.4414 20.4886 15.542 20.7699 15.726C21.3701 16.1187 21.9791 16.4981 22.5875 16.8781C22.6933 16.9442 22.7425 17.005 22.7035 17.1404C22.6037 19.3181 23.0951 21.5461 22.6138 23.6996C22.5302 24.0947 22.4354 24.1249 22.0291 24.1361C20.5303 24.1724 19.0264 24.2366 17.5282 24.2642Z" fill="white"/>
<path id="Vector_7" d="M13.3827 15.5037C13.7829 18.5021 13.6577 21.4736 13.6443 24.4558C12.2469 24.5251 10.7762 24.5861 9.42609 24.1331C9.24613 24.0764 9.17333 23.9455 9.16545 23.7489C9.10263 22.1844 9.00442 20.6208 8.97152 19.0557C8.96776 18.1469 9.01513 17.2259 9.09977 16.3206C9.24417 15.8108 9.26969 15.8054 9.82354 15.7014C11.0015 15.524 12.186 15.5615 13.3827 15.5037Z" fill="white"/>
<path id="Vector_8" d="M15.9597 11.7437C14.3567 10.8542 12.8175 9.87652 11.2479 8.93347C10.6793 8.63941 11.5845 7.25 11.741 6.81177C11.7861 6.20403 16.5352 9.34087 17.1549 9.62449C16.7551 10.3334 16.3613 11.0316 15.9597 11.7437Z" fill="white"/>
<path id="Vector_9" d="M20.7859 11.7828C22.355 12.7279 23.9137 13.7142 25.4696 14.6816C25.8231 14.9301 24.6751 16.5571 24.5108 16.7912C22.8826 15.7743 21.255 14.7576 19.6195 13.7361C19.9949 13.1075 20.3864 12.4517 20.7859 11.7828Z" fill="white"/>
<path id="Vector_10" d="M14.6369 15.4808C14.788 15.4808 14.8821 15.4808 15.0035 15.4808C15.1293 18.4421 15.2068 21.4322 15.0793 24.3905C14.9361 24.3975 14.7921 24.4046 14.5826 24.4148C14.934 21.4368 14.7564 18.4709 14.6369 15.4808Z" fill="white"/>
<path id="Vector_11" d="M18.1918 10.2496C18.2535 10.2849 18.3214 10.3237 18.3993 10.3683C18.0121 11.0714 17.6299 11.7654 17.2404 12.4727C17.1534 12.4227 17.0348 12.3546 16.9126 12.2843C17.3408 11.6032 17.7629 10.9318 18.1918 10.2496Z" fill="white"/>
</g>
</g>
</svg>
