<svg width="54" height="52" viewBox="0 0 54 52" fill="none" xmlns="http://www.w3.org/2000/svg">
<path d="M49.3407 5.7093C47.8808 3.91833 46.0473 2.47796 43.9722 1.49194C41.8972 0.505926 39.6323 -0.00118974 37.3407 0.00712873C33.4197 -0.113244 29.6024 1.29462 26.674 3.94106C23.7457 1.29462 19.9283 -0.113244 16.0073 0.00712873C13.7157 -0.00118974 11.4508 0.505926 9.3758 1.49194C7.30076 2.47796 5.46725 3.91833 4.00734 5.7093C1.46601 8.83481 -1.19266 14.4937 0.57001 23.7162C3.38334 38.4434 24.4793 50.5291 25.37 51.0238C25.767 51.2483 26.2141 51.3661 26.6687 51.3661C27.1233 51.3661 27.5703 51.2483 27.9673 51.0238C28.8633 50.5182 49.9593 38.4326 52.7673 23.7162C54.5407 14.4937 51.882 8.83481 49.3407 5.7093ZM47.5433 22.6887C45.554 33.1008 31.0953 42.7856 26.674 45.538C20.4447 41.7257 7.62868 32.1545 5.81801 22.6887C4.45001 15.5347 6.32201 11.379 8.13534 9.15115C9.09429 7.97803 10.2974 7.03463 11.6584 6.3886C13.0194 5.74258 14.5046 5.40996 16.0073 5.41459C17.6124 5.29254 19.2212 5.59427 20.677 6.29035C22.1328 6.98642 23.3859 8.0531 24.314 9.38637C24.5429 9.81339 24.8805 10.1703 25.2917 10.4201C25.703 10.6698 26.1727 10.8031 26.652 10.8061C27.1313 10.8092 27.6027 10.6818 28.017 10.4373C28.4312 10.1928 28.7732 9.84019 29.0073 9.41612C29.9337 8.07246 31.1894 6.99676 32.6507 6.29506C34.112 5.59337 35.7285 5.28991 37.3407 5.41459C38.8466 5.40716 40.3354 5.73843 41.6998 6.38455C43.0643 7.03067 44.2704 7.97556 45.2313 9.15115C47.0393 11.379 48.9113 15.5347 47.5433 22.6887Z" fill="url(#paint0_linear_349_1242)"/>
<defs>
<linearGradient id="paint0_linear_349_1242" x1="-4.5" y1="28.3892" x2="54.5001" y2="27.896" gradientUnits="userSpaceOnUse">
<stop stop-color="#EB001B"/>
<stop offset="1" stop-color="white"/>
</linearGradient>
</defs>
</svg>
