<svg version="1.2" xmlns="http://www.w3.org/2000/svg" viewBox="0 0 96 100" width="96" height="100">
	<title>Logo-2-svg</title>
	<style>
		.s0 { fill: #ffffff } 
		.s1 { mix-blend-mode: multiply;fill: #cecece } 
	</style>
	<path id="Layer" class="s0" d="m66 33q-0.4 0.4-0.7 0.9c-1.6 2.9-3 6.1-3.9 9.3q-0.3 1-0.5 2c-0.4 1.8-1 3.3-1.7 4.6-1.1 2.1-2.5 3.5-3.9 4.3q-0.9 0.2-1.7 0.5 0.2 0.1 0.3 0.1-0.4 0.1-0.8 0.2-0.2 0-0.4 0.1c-0.7 0.1-1.4 0.2-2.1 0-0.7-0.1-1.2-0.3-1.7-0.6q-0.2-0.1-0.4-0.2l-0.2-0.2h-0.1l-0.1-0.1-0.2-0.1q-0.1-0.1-0.2-0.3-0.6-0.5-0.9-1-0.4-0.4-0.7-0.8-0.1-0.2-0.2-0.5l-0.2-0.3q-0.8-1.4-1.5-2.8l-0.1-0.2q0-0.1-0.1-0.2c-2.9-4.6-8.9-5.5-13-2.7q-1.1 0.8-2 1.9c-0.9-1.3-1.5-2.5-2-3.4l-0.4-0.8q-0.3-0.7-0.6-1.4c0.3-1.4 0.8-2.8 1.4-4.2 1.7-3.5 4.3-6.8 8.6-8.9 0.1-0.1 0.3-0.1 0.5-0.2 0 0 5.1-2.1 9.2 7.2q0.1 0.1 0.2 0.3 0 0 0 0 0 0.3 0.1 0.7 0 0.2 0.1 0.4 0 0.4 0.1 0.8 0.1 0.7 0.1 1.4c0.1 1.3 0.5 2.5 1.1 3.6q0.5 0.9 1.2 1.6c0.7 0.7 1.5 1.3 2.5 1.6q1.1 0.3 2.3 0.1 0.2 0 0.4 0 0.1-0.1 0.1-0.1 0.3 0 0.5-0.1 0 0 0 0 0.5-0.2 0.9-0.4 0.2-0.1 0.4-0.3 0.2 0 0.3-0.1 0.9-0.6 1.6-1.5 2-2.6 3.9-5.2c0.3-0.4 0.7-1 1.1-1.5q0.6-0.8 1.3-1.5 0.7-0.8 1.6-1.5 0.2-0.2 0.5-0.5z"/>
	<path id="Layer" class="s0" d="m43.9 28.2c-3.2 0-5.7-2.6-5.7-5.8 0-3.1 2.5-5.7 5.7-5.7 3.2 0 5.7 2.6 5.7 5.7 0 3.2-2.5 5.8-5.7 5.8z"/>
	<g id="Layer" style="opacity: .3">
		<path id="Layer" class="s1" d="m44.7 27.3c-3.2 0-5.7-2.5-5.7-5.6 0-1.4 0.4-2.7 1.3-3.7-1.3 1.1-2.1 2.6-2.1 4.4 0 3.2 2.5 5.7 5.7 5.7 1.8 0 3.4-0.8 4.4-2.1-1 0.9-2.3 1.3-3.6 1.3z"/>
	</g>
	<path id="Layer" class="s0" d="m57.5 23.6c-3.8 0-7-3.2-7-7 0-3.9 3.2-7 7-7 3.9 0 7 3.1 7 7 0 3.8-3.1 7-7 7z"/>
	<g id="Layer" style="opacity: .3">
		<path id="Layer" class="s1" d="m58.6 22.4c-3.9 0-7-3.1-7-6.9 0-1.7 0.6-3.2 1.5-4.4-1.6 1.3-2.6 3.3-2.6 5.5 0 3.8 3.1 7 7 7 2.2 0 4.1-1.1 5.4-2.7-1.2 1-2.7 1.5-4.3 1.5z"/>
	</g>
	<path id="Layer" class="s0" d="m78.9 40.1c-0.1 2.4-0.7 4.7-1.7 6.8q0 0.1 0 0.2-1 2-2.1 3.7-2.2 3.5-5 6.1c-4.4 4.1-9.9 6.3-16.3 6.6q-0.4 0-0.8 0-0.6 0-1.3 0-1.1 0-2.2-0.1-1.4-0.1-2.8-0.3c-5.5-1.1-10.1-3.2-13.7-6-5.3-4.1-8.6-9.8-10.1-15.9-2-7.4-1.4-15.5 2.4-22.8 4.5-8.9 12.7-14.8 21.8-16.7-5.6 1.7-10.8 5-14.5 9.9q-1.7 2.1-3 4.7-1.3 2.6-2.1 5.2c-1.5 5.2-1.4 10.6-0.1 15.6q1.1 3.9 3.2 7.3 0.2 0.3 0.4 0.6 1.3 1.5 2.8 2.7c2.7 2.2 6.1 3.8 10.1 4.4q0.2-0.2 0.4-0.3 0.7-0.5 1.4-0.9 0.5-0.3 1.1-0.5c4.1-1.9 7.5-1.3 10.4-0.8q1.1 0.2 2 0.2 0.3 0.1 0.6 0.1c0.9 0 1.7-0.1 2.4-0.4 1.6-0.7 2.7-0.7 2.6 0.7-0.2 2.5-2.5 3.1-5.1 3.4-0.8 0.1-1.6 0.1-2.5 0.2q-1 0.1-1.9 0.3-0.9 0.2-1.7 0.5 0.2 0.1 0.3 0.1 1.6 0.3 3.3 0.4 1.3 0 2.5-0.2c7.4-0.9 17.2-7.5 14.7-17.2-0.5-2.2-2.8-4.3-5.3-5.3-1.3-0.4-2.3-0.1-3.1 0.6q-0.3 0.3-0.5 0.5-0.9 0.7-1.6 1.5-0.7 0.7-1.3 1.5c-0.4 0.5-0.8 1.1-1.1 1.5q-1.9 2.6-3.9 5.2-0.7 0.9-1.6 1.5-0.1 0.1-0.3 0.1-0.2 0.2-0.4 0.3-0.4 0.2-0.9 0.4-0.2 0.1-0.5 0.1 0 0-0.1 0.1-0.2 0-0.4 0-1.2 0.2-2.3-0.1c-1-0.3-1.8-0.9-2.5-1.6q-0.7-0.7-1.2-1.6c-0.6-1.1-1-2.3-1.1-3.6q0-0.7-0.1-1.4-0.1-0.4-0.1-0.8-0.1-0.2-0.1-0.4-0.1-0.4-0.1-0.7 0 0 0 0c0.4 0.9 1.1 1.8 1.9 2.4q0.6 0.6 1.3 1c0.9 0.4 1.8 0.7 2.7 0.6 0.9 0 1.8-0.3 2.7-1.1 0.9-0.7 1.6-1.7 2-2.9q0.9-2.7 1.7-5.4c0.1-0.5 0.3-1.1 0.5-1.6q0.3-0.8 0.6-1.7c0.3-0.6 0.5-1.1 0.9-1.7 0.3-0.6 0.7-1.2 1.3-1.7q0.3-0.5 0.9-0.9 0.5-0.4 1.2-0.8c0.5-0.2 1.7-0.4 1.9-0.4 0 0 3.4-0.3 7.7 4.2 3.9 4.2 5.8 9.4 5.7 14.6z"/>
	<g id="Layer" style="opacity: .3">
		<path id="Layer" class="s1" d="m55.2 62.3q-2.1 0.1-4.3-0.1 0 0-0.1 0-1.3-0.1-2.8-0.3c-5.5-1-10-3.1-13.6-5.9-5.3-4.2-8.7-9.9-10.1-16-2-7.3-1.4-15.4 2.3-22.8 1.5-2.8 3.3-5.3 5.4-7.5-2.6 2.4-4.8 5.4-6.5 8.7-3.8 7.4-4.4 15.4-2.4 22.8 1.5 6.1 4.8 11.8 10.1 15.9 3.6 2.8 8.2 4.9 13.7 6q1.4 0.2 2.8 0.3 0 0 0 0 2.2 0.2 4.3 0.1c7.1-0.4 12.9-3 17.6-7.9-4.5 4.2-10 6.4-16.4 6.7z"/>
	</g>
	<path id="Layer" class="s0" d="m44.7 37.4l1.1-2 0.4 0.8 0.8 4.1 0.9 1.3 0.5 1.1 3.2 0.8 1.2 0.5 3.7-1.5 4.5-5.2 2.2-4 2.4-1.4 1.4-0.6-0.6 1.3-0.1 0.2c0 0-0.9 0.7-1.6 2.1-0.7 1.4-1.5 1.9-1.5 1.9l-1.9 2.5-1.1 1.7-1.8 3.2-3.3 2.1-3.9 1-2.4-2.3-2.2-1.1-1.8-5.2z"/>
	<g id="Layer" style="opacity: .3">
		<path id="Layer" class="s1" d="m68.7 31c-1.2-0.5-2.2-0.2-3 0.6q-0.3 0.2-0.6 0.4-0.8 0.8-1.5 1.5-0.7 0.8-1.3 1.6c-0.4 0.5-0.8 1-1.2 1.5q-1.8 2.6-3.8 5.1-0.7 0.9-1.7 1.5-0.1 0.1-0.2 0.2-0.2 0.1-0.5 0.3-0.4 0.2-0.9 0.3-0.2 0.1-0.4 0.2-0.1 0-0.1 0-0.2 0.1-0.4 0.1c-0.9 0.2-1.7 0.1-2.4-0.1-0.9-0.3-1.8-0.9-2.5-1.7q-0.7-0.7-1.1-1.5-0.4-0.6-0.6-1.2 0.3 1.3 0.9 2.4 0.5 0.8 1.2 1.5c0.7 0.8 1.5 1.4 2.5 1.7q1.1 0.3 2.3 0.1 0.2 0 0.4-0.1 0.1 0 0.1 0 0.3-0.1 0.5-0.1 0.5-0.2 0.9-0.4 0.2-0.1 0.4-0.3 0.2-0.1 0.3-0.2c0.6-0.4 1.2-0.9 1.6-1.5q2-2.5 3.9-5.1c0.3-0.5 0.7-1 1.1-1.5q0.6-0.8 1.3-1.6c0.5-0.5 1-1 1.6-1.4q0.2-0.3 0.5-0.5c0.8-0.8 1.8-1.1 3.1-0.6 2.2 0.9 4.2 2.6 5.1 4.5q-0.1-0.2-0.1-0.5c-0.6-2.1-2.9-4.2-5.4-5.2z"/>
	</g>
	<path id="Layer" fill-rule="evenodd" class="s0" d="m1.8 93.5c0-0.9 0.2-1.7 0.7-2.3 0.5-0.5 1.2-0.9 2.1-0.9 0.8 0 1.5 0.4 2 0.9 0.5 0.6 0.8 1.4 0.8 2.3 0 0.9-0.3 1.7-0.8 2.2-0.5 0.6-1.2 1-2 1-0.9 0-1.6-0.4-2.1-1-0.5-0.5-0.7-1.3-0.7-2.2zm4.7 0c0-0.9-0.2-1.6-0.5-2.1q-0.5-0.7-1.4-0.7c-0.6 0-1.1 0.2-1.4 0.7-0.3 0.5-0.5 1.2-0.5 2.1q0 1.3 0.5 2c0.3 0.5 0.8 0.8 1.4 0.8 0.6 0 1-0.3 1.4-0.8q0.5-0.7 0.5-2z"/>
	<path id="Layer" class="s0" d="m11.4 96.5h-0.8v-3.2c0-0.5-0.1-0.9-0.6-0.9h-0.1v-0.2h0.7c0.5 0 0.7 0.1 0.8 0.4 0.2-0.2 0.6-0.5 1.1-0.5 0.2 0 0.4 0.1 0.5 0.2 0.2 0.1 0.3 0.2 0.4 0.4l-0.4 0.2c-0.1-0.1-0.4-0.2-0.7-0.2-0.4 0-0.7 0.1-0.9 0.4z"/>
	<path id="Layer" fill-rule="evenodd" class="s0" d="m17.1 98.2h-0.8v-4.9c0-0.6-0.1-0.9-0.6-0.9h-0.2v-0.2h0.8c0.5 0 0.7 0.1 0.8 0.4 0.2-0.2 0.6-0.5 1.3-0.5 0.5 0 0.9 0.3 1.2 0.7 0.3 0.4 0.4 0.9 0.4 1.5 0 0.7-0.1 1.2-0.4 1.6-0.3 0.4-0.7 0.7-1.3 0.7-0.5 0-0.9-0.2-1.2-0.3zm0-2.3c0.3 0.2 0.6 0.3 0.9 0.3 0.4 0 0.7-0.2 0.9-0.5 0.2-0.4 0.2-0.9 0.2-1.4 0-0.5 0-1-0.2-1.3-0.2-0.3-0.4-0.5-0.8-0.5q-0.4 0-0.6 0.1-0.2 0.2-0.4 0.4z"/>
	<path id="Layer" class="s0" d="m24 92.6c0.2-0.2 0.6-0.5 1.2-0.5 0.3 0 0.7 0.1 1 0.3 0.3 0.3 0.5 0.7 0.5 1.4v2.7h-0.8v-2.7c0-0.5-0.2-0.8-0.3-1q-0.3-0.3-0.7-0.3c-0.4 0-0.7 0.3-0.9 0.5v3.5h-0.9v-4.9c0-0.6 0-0.9-0.6-0.9h-0.2v-0.2h0.8c0.4 0 0.6 0 0.7 0.2 0.1 0.1 0.2 0.4 0.2 0.9z"/>
	<path id="Layer" fill-rule="evenodd" class="s0" d="m33.1 96.5h-0.4l-0.3-0.4h-0.1c-0.2 0.2-0.6 0.5-1.3 0.5-0.2 0-0.5-0.1-0.8-0.3-0.3-0.2-0.5-0.5-0.5-1 0-0.5 0.3-0.8 0.7-1 0.4-0.2 1-0.3 1.6-0.3h0.3c0-0.6-0.1-1-0.3-1.2q-0.2-0.3-0.6-0.3c-0.6 0-0.9 0.2-1 0.8l-0.4-0.1c0-0.3 0-0.5 0.2-0.8 0.1-0.1 0.3-0.2 0.5-0.2q0.4-0.1 0.8-0.1c0.4 0 0.8 0.1 1.1 0.4 0.3 0.2 0.5 0.7 0.5 1.5zm-0.8-2.1h-0.3c-0.9 0-1.4 0.4-1.4 0.9 0 0.3 0.1 0.5 0.2 0.7 0.2 0.1 0.4 0.2 0.6 0.2 0.5 0 0.7-0.3 0.9-0.5z"/>
	<path id="Layer" class="s0" d="m37.4 96.5h-0.8v-3.2c0-0.5-0.1-0.9-0.6-0.9h-0.2v-0.2h0.8c0.5 0 0.7 0.2 0.8 0.4 0.2-0.2 0.7-0.5 1.2-0.5 0.4 0 0.8 0.1 1.1 0.3 0.3 0.3 0.4 0.7 0.4 1.4v2.7h-0.8v-2.8c0-0.4-0.1-0.7-0.3-0.9q-0.3-0.3-0.7-0.3c-0.3 0-0.7 0.2-0.9 0.5z"/>
	<path id="Layer" class="s0" d="m46.5 95.4q0 0.6-0.5 0.8c-0.2 0.3-0.7 0.4-1.1 0.4q-1.1 0-1.4-0.4c-0.2-0.2-0.2-0.5-0.2-1h0.1c0.1 0.6 0.5 1 1.3 1 0.7 0 1-0.3 1-0.6 0-0.4-0.3-0.6-0.8-0.9l-0.5-0.2c-0.7-0.3-1.1-0.6-1.1-1.2 0-0.4 0.1-0.7 0.4-0.9q0.4-0.3 1.1-0.3 1 0 1.3 0.4c0.3 0.2 0.3 0.5 0.3 0.9h-0.2c-0.1-0.6-0.5-0.9-1.3-0.9-0.5 0-0.9 0.2-0.9 0.6 0 0.3 0.3 0.6 0.8 0.8l0.5 0.2c0.8 0.3 1.2 0.7 1.2 1.3z"/>
	<path id="Layer" class="s0" d="m57.5 95.4q-0.1 0.6-0.5 0.8c-0.3 0.3-0.7 0.4-1.1 0.4-0.8 0-1.2-0.2-1.4-0.4-0.3-0.2-0.3-0.5-0.3-1h0.2c0.1 0.6 0.5 1 1.3 1 0.7 0 1-0.3 1-0.6 0-0.4-0.3-0.6-0.8-0.9l-0.6-0.2c-0.7-0.3-1.1-0.6-1.1-1.2 0-0.4 0.2-0.7 0.5-0.9 0.2-0.2 0.6-0.3 1-0.3 0.7 0 1.2 0.2 1.4 0.4 0.2 0.2 0.2 0.5 0.2 0.9h-0.2c-0.1-0.6-0.5-0.9-1.2-0.9-0.6 0-0.9 0.2-0.9 0.6 0 0.3 0.3 0.6 0.7 0.8l0.6 0.2c0.8 0.3 1.2 0.7 1.2 1.3z"/>
	<path id="Layer" fill-rule="evenodd" class="s0" d="m60.3 94.3c0-0.6 0.2-1.1 0.6-1.5 0.3-0.4 0.8-0.7 1.4-0.7 0.6 0 1.2 0.3 1.5 0.7 0.4 0.4 0.5 0.9 0.5 1.5 0 0.7-0.1 1.2-0.5 1.6-0.3 0.4-0.9 0.7-1.5 0.7-0.6 0-1.1-0.3-1.4-0.7-0.4-0.4-0.6-0.9-0.6-1.6zm3.2 0c0-0.5-0.2-1-0.3-1.3-0.3-0.3-0.5-0.5-0.9-0.5-0.3 0-0.6 0.2-0.8 0.5-0.2 0.3-0.3 0.8-0.3 1.3 0 0.6 0.1 1 0.3 1.4 0.2 0.3 0.5 0.5 0.8 0.5 0.4 0 0.6-0.2 0.9-0.5 0.1-0.4 0.3-0.8 0.3-1.4z"/>
	<path id="Layer" class="s0" d="m69.2 92.1c0.6 0 1.1 0.1 1.3 0.3q0.2 0.2 0.2 0.4 0.1 0.3 0 0.8h-0.1c-0.1-0.8-0.6-1.1-1.2-1.1-0.5 0-0.8 0.2-1 0.5-0.2 0.3-0.3 0.8-0.3 1.3 0 0.6 0.1 1 0.3 1.4 0.2 0.3 0.5 0.5 1 0.5 0.6 0 1-0.3 1.3-0.7l0.2 0.1c-0.4 0.7-1 1-1.7 1-0.7 0-1.2-0.3-1.5-0.7-0.3-0.4-0.5-0.9-0.5-1.6 0-0.6 0.2-1.1 0.5-1.5 0.3-0.4 0.8-0.7 1.5-0.7z"/>
	<path id="Layer" class="s0" d="m74.9 96.5h-0.8v-3.2c0-0.6-0.1-0.9-0.7-0.9h-0.2v-0.2h0.9c0.3 0 0.5 0 0.6 0.2 0.1 0.2 0.2 0.4 0.2 0.9zm-0.1-5.2c0 0.2-0.2 0.4-0.4 0.4-0.3 0-0.5-0.3-0.5-0.6 0-0.2 0.2-0.4 0.4-0.4 0.3 0 0.5 0.3 0.5 0.6z"/>
	<path id="Layer" fill-rule="evenodd" class="s0" d="m81.6 94.5h-2.8q0 0.7 0.4 1.2 0.3 0.5 0.8 0.5c0.6 0 1-0.3 1.3-0.7l0.2 0.1c-0.4 0.7-0.9 1-1.6 1-0.7 0-1.1-0.3-1.5-0.7-0.3-0.4-0.4-0.9-0.4-1.6 0-0.6 0.1-1.1 0.4-1.5 0.4-0.4 0.8-0.7 1.4-0.7 1.2 0 1.8 0.7 1.8 2zm-0.8-0.4c0-1-0.4-1.6-1-1.6-0.3 0-0.5 0.2-0.7 0.5q-0.2 0.4-0.2 1.1z"/>
	<path id="Layer" class="s0" d="m84.9 92.6h-0.7v-0.4h0.7v-0.8l0.4-0.6h0.4v1.4h1.1v0.4h-1.1v2.8q0 0.8 0.6 0.8c0.4 0 0.5-0.1 0.7-0.2l0.1 0.2q-0.1 0.1-0.4 0.2-0.3 0.2-0.7 0.2c-0.7 0-1.1-0.4-1.1-1.2z"/>
	<path id="Layer" class="s0" d="m91.6 96.6l-1.5-3.6c-0.2-0.4-0.5-0.6-1-0.7v-0.2h0.8c0.5 0 0.9 0.3 1.1 0.7l1 2.5 1.1-3.1h0.5l-1.8 4.9c-0.2 0.5-0.3 0.8-0.6 0.9-0.2 0.2-0.4 0.3-0.8 0.3h-0.2v-0.3q0.4 0 0.7-0.2c0.2-0.1 0.3-0.3 0.5-0.7z"/>
	<path id="Layer" fill-rule="evenodd" class="s0" d="m10.8 76c0.7 0.7 1.1 1.7 1.1 3 0 1.2-0.4 2.3-1.2 3-0.8 0.8-1.9 1.2-3.3 1.2q-0.9 0-1.7-0.3-0.4-0.2-0.7-0.4c-0.2 1.2-0.8 2-1.4 2.5-0.7 0.5-1.4 0.7-1.8 0.8-0.1 0-0.2 0-0.2 0q-0.1-0.1 0-0.2c0.7-0.4 1.1-0.9 1.4-1.5 0.2-0.6 0.2-1.2 0.2-1.7v-3.7c0-0.5 0.2-1 0.3-1.5 0.5-1 1.2-1.7 2.3-2.1q0.9-0.3 1.9-0.3c1.2 0 2.4 0.5 3.1 1.2zm-3.4-0.5q-0.1 0-0.2 0-0.9 0.1-1.5 0.8c-0.2 0.4-0.4 0.7-0.5 1.2q-0.1 0.5-0.1 1.2 0 0.8 0.1 1.4c0.1 0.5 0.4 0.9 0.6 1.3q0.7 1 1.9 1c0.7 0 1.3-0.2 1.8-0.9 0.4-0.6 0.6-1.2 0.6-2.3 0-1-0.2-1.7-0.5-2.3q0-0.1-0.1-0.2c0-0.1-0.1-0.1-0.1-0.2q-0.7-1-1.8-1z"/>
	<path id="Layer" class="s0" d="m16.2 71.6c-0.9 0-1.1 0.5-1.1 1.1v8.7h2.2v0.6h-4v-10.6h2.9z"/>
	<path id="Layer" class="s0" d="m21.9 75.1c-0.7 0-0.8 0.4-0.8 1.1v5.2h3.3v0.6h-7.4v-0.6h2.2v-6.6h2.9v0.3zm-2.9-1.7c-0.5 0-0.9-0.4-0.9-0.9 0-0.5 0.4-0.9 0.9-0.9 0.5 0 0.9 0.4 0.9 0.9 0 0.5-0.4 0.9-0.9 0.9zm2.3 0c-0.5 0-0.9-0.4-0.9-0.9 0-0.5 0.4-0.9 0.9-0.9 0.5 0 1 0.4 1 0.9 0 0.5-0.5 0.9-1 0.9z"/>
	<path id="Layer" class="s0" d="m28.7 75.1c-0.8 0-0.9 0.4-0.9 1.1v2.3c0 1.1-0.4 1.9-1 2.5-0.6 0.7-1.3 1-2.1 1h-1.3v-0.6h0.4c0.5 0 1-0.1 1.4-0.5 0.4-0.4 0.7-1 0.8-2v-4.1h2.9v0.3zm-3.9 10.2c-0.5 0-0.9-0.4-0.9-0.9 0-0.5 0.4-1 0.9-1 0.5 0 0.9 0.5 0.9 1 0 0.5-0.4 0.9-0.9 0.9zm2.3 0c-0.5 0-0.9-0.4-0.9-0.9 0-0.5 0.4-1 0.9-1 0.5 0 0.9 0.5 0.9 1 0 0.5-0.4 0.9-0.9 0.9z"/>
	<path id="Layer" class="s0" d="m32.2 68.4c0.2 0.2 0.2 0.3 0.2 0.7h-0.2c0-0.5-0.4-0.6-0.9-0.6-0.8 0-1.1 0.4-1.1 1 0 0.7 0.3 1.2 1.1 1.2h1.1v0.3h-3.4v-0.3h1.1q-0.8-0.4-0.8-1.2c0-0.7 0.7-1.3 1.8-1.3q0.8 0 1.1 0.2zm-0.5 8.9c0 0.5 0 1 0.2 1.5 0.2 0.5 0.5 1 1.2 1.4q0.1 0 0 0.1 0 0.1-0.2 0c-0.4-0.1-1-0.3-1.6-0.7-0.6-0.4-1.1-1.1-1.3-2.3v-3.7c0-0.6-0.1-1-0.8-1h-0.2v-0.2h2.7zm5-5.7c-0.7 0-0.8 0.3-0.9 0.8v6.5q0 3.1-3.4 3.1c-1.2 0-2.1-0.5-2.7-1v-0.7c0.6 0.6 1.3 1.1 2.1 1.1 0.5 0 1-0.2 1.4-0.6 0.4-0.4 0.7-1 0.8-1.9v-7.6h2.9v0.3z"/>
	<path id="Layer" class="s0" d="m40.9 71.6c-1 0-1.1 0.5-1.1 1.1v9.3h-1.8v-10.6h2.9z"/>
	<path id="Layer" class="s0" d="m52.1 75.1c0.4 0.4 0.4 0.8 0.4 2h-0.3c-0.1-1.3-1-1.7-2.1-1.7-1.6 0-2.3 1.1-2.3 2.9 0 1.6 0.5 2.9 1.9 3.1h5v0.6h-5.3c-0.8 0-1.5 0.3-2.1 0.9-0.5 0.5-0.9 1.2-0.9 2.2 0 1 0.4 1.7 1 2.2 0.6 0.5 1.4 0.7 2.3 0.7h0.9c0.5 0 1 0 1.4-0.2 0.4-0.1 0.6-0.4 0.6-1.1v-0.4h0.3v0.4c0 1-0.1 1.5-0.4 1.8-0.4 0.2-1 0.2-1.9 0.2h-0.9c-3.3 0-5-1.4-5-3.6 0-1.7 1.1-3.1 3.2-3.5-1.4-0.8-2-2-2-3.3 0-1 0.4-2 1-2.6 0.7-0.7 1.7-1.1 2.9-1.1q1.7 0 2.3 0.5z"/>
	<path id="Layer" fill-rule="evenodd" class="s0" d="m63.1 76c0.8 0.7 1.1 1.7 1.2 2.7v0.4c0 0.9 0.2 1.5 0.5 1.8 0.4 0.4 0.8 0.5 1.3 0.5h1v0.6h-1.6c-0.5-0.1-1-0.2-1.3-0.4-0.1-0.2-0.3-0.4-0.4-0.6-0.4 0.8-1 1.5-2.1 1.9q-0.9 0.3-1.9 0.3c-1.3 0-2.4-0.5-3.1-1.2q-0.4-0.4-0.7-0.9-0.3 0.6-0.9 0.8-0.3 0.1-0.7 0.1h-1.4v-0.6h0.8c0.4 0 0.9-0.1 1.2-0.4 0.3-0.3 0.5-0.9 0.6-1.7v-0.3c0-1.3 0.3-2.3 1.2-3.1 0.7-0.7 1.9-1.1 3.2-1.1 1.3 0 2.4 0.5 3.1 1.2zm-5 0.3c-0.4 0.7-0.7 1.3-0.7 2.4 0 1.3 0.3 2 0.8 2.7 0.5 0.7 1.1 1 1.8 1q1.2 0.1 1.8-0.9c0.5-0.6 0.6-1.2 0.6-2.3 0-1.2-0.2-2-0.6-2.7-0.5-0.7-1.1-1-1.8-1q-1.2 0-1.9 0.8z"/>
	<path id="Layer" class="s0" d="m71 75.1c-0.8 0-0.9 0.4-0.9 1.1v5.2h3.3v0.6h-7.3v-0.6h2.2v-6.6h2.9v0.3zm-2.9-1.7c-0.5 0-0.9-0.4-0.9-0.9 0-0.5 0.4-0.9 0.9-0.9 0.5 0 0.9 0.4 0.9 0.9 0 0.5-0.4 0.9-0.9 0.9zm2.3 0c-0.5 0-0.9-0.4-0.9-0.9 0-0.5 0.4-0.9 0.9-0.9 0.5 0 0.9 0.4 0.9 0.9 0 0.5-0.4 0.9-0.9 0.9z"/>
	<path id="Layer" fill-rule="evenodd" class="s0" d="m75.3 74.2c2.3 2.3 3.7 3.7 4.7 4.7q0.7 0.7 1.1 1.1l0.6 0.7c0.3 0.2 0.4 0.4 0.7 0.7h2.1v0.6h-1.8c0.3 0.8 0.3 1.6 0.2 2.2-0.2 0.6-0.5 1.2-0.7 1.5q-0.1 0.2-0.2 0.1 0 0 0-0.1c0.2-0.8 0.1-1.5-0.2-2-0.2-0.6-0.6-1-0.9-1.4l-0.3-0.3h-9.6v-0.6h9l-5.1-5c-0.4-0.4-0.8-0.7-1.3-0.1l-0.2 0.1-0.2-0.1zm1 11.1c-0.5 0-1-0.5-1-1 0-0.5 0.5-0.9 1-0.9 0.5 0 0.9 0.4 0.9 0.9 0 0.5-0.4 1-0.9 1z"/>
	<path id="Layer" fill-rule="evenodd" class="s0" d="m93 76c0.7 0.7 1.1 1.7 1.1 3 0 1.3-0.4 2.3-1.2 3-0.8 0.8-1.9 1.2-3.3 1.2-1.3 0-2.3-0.5-3-1.2q-0.5-0.4-0.7-0.9-0.4 0.6-1 0.8-0.3 0.1-0.7 0.1h-1.4v-0.6h0.8c0.5 0 0.9-0.1 1.2-0.4 0.3-0.3 0.5-0.9 0.6-1.7v-0.3c0-1.3 0.4-2.3 1.2-3.1 0.7-0.7 1.9-1.1 3.3-1.1 1.2 0 2.4 0.5 3.1 1.2zm-5.1 0.3c-0.4 0.7-0.6 1.3-0.6 2.4 0 1.3 0.3 2 0.7 2.7q0.7 1 1.9 1c0.7 0 1.3-0.2 1.8-0.9 0.4-0.6 0.6-1.2 0.6-2.3 0-1.2-0.2-2-0.7-2.7q-0.7-1-1.8-1-1.2 0-1.9 0.8z"/>
</svg>