<svg version="1.2" xmlns="http://www.w3.org/2000/svg" viewBox="0 0 67 47" width="40" height="28">
	<title>logo-svg</title>
	<style>
		.s0 { fill: #8458e9 } 
		.s1 { mix-blend-mode: multiply;fill: #cecece } 
	</style>
	<path id="Layer" class="s0" d="m39.6 15.5q-0.2 0.2-0.3 0.5c-0.8 1.3-1.5 2.8-1.9 4.3q-0.1 0.5-0.2 0.9-0.3 1.3-0.8 2.2c-0.5 1-1.2 1.7-1.8 2q-0.5 0.1-0.8 0.3 0.1 0 0.1 0-0.2 0.1-0.4 0.1-0.1 0-0.1 0c-0.4 0.1-0.7 0.1-1 0.1q-0.5-0.1-0.8-0.3-0.1-0.1-0.2-0.1l-0.1-0.1-0.1-0.1h-0.1q0-0.1-0.1-0.1-0.2-0.3-0.4-0.5-0.2-0.2-0.3-0.4-0.1-0.1-0.1-0.2l-0.1-0.2q-0.4-0.6-0.7-1.3v-0.1q-0.1 0-0.1-0.1c-1.3-2.2-4.1-2.6-6-1.3q-0.6 0.4-1 0.9c-0.4-0.6-0.7-1.2-0.9-1.6l-0.2-0.3q-0.2-0.4-0.3-0.7 0.2-1 0.7-1.9c0.7-1.7 2-3.3 4-4.3q0.1 0 0.2 0c0 0 2.4-1 4.3 3.4q0 0 0.1 0.1 0 0 0 0 0 0.1 0 0.3 0 0.1 0.1 0.2 0 0.2 0 0.4 0.1 0.3 0.1 0.6 0 1 0.5 1.7 0.2 0.4 0.5 0.8 0.5 0.5 1.2 0.7 0.5 0.2 1.1 0.1 0.1 0 0.2 0 0 0 0-0.1 0.1 0 0.2 0 0 0 0.1 0 0.2-0.1 0.4-0.2 0.1-0.1 0.2-0.1 0-0.1 0.1-0.1 0.4-0.3 0.8-0.7 0.9-1.2 1.8-2.4c0.1-0.2 0.3-0.5 0.5-0.7q0.3-0.4 0.6-0.8 0.3-0.3 0.7-0.7 0.1-0.1 0.3-0.2z"/>
	<path id="Layer" class="s0" d="m29.3 13.2c-1.5 0-2.7-1.2-2.7-2.7 0-1.4 1.2-2.6 2.7-2.6 1.4 0 2.6 1.2 2.6 2.6 0 1.5-1.2 2.7-2.6 2.7z"/>
	<g id="Layer" style="opacity: .3">
		<path id="Layer" class="s1" d="m29.6 12.9c-1.5 0-2.6-1.2-2.6-2.7 0-0.7 0.2-1.3 0.6-1.7-0.6 0.5-1 1.2-1 2 0 1.5 1.2 2.7 2.7 2.7 0.8 0 1.5-0.4 2-1-0.5 0.4-1 0.7-1.7 0.7z"/>
	</g>
	<path id="Layer" class="s0" d="m35.6 11.1c-1.8 0-3.3-1.5-3.3-3.3 0-1.8 1.5-3.3 3.3-3.3 1.8 0 3.3 1.5 3.3 3.3 0 1.8-1.5 3.3-3.3 3.3z"/>
	<g id="Layer" style="opacity: .3">
		<path id="Layer" class="s1" d="m36.1 10.5c-1.8 0-3.2-1.4-3.2-3.2 0-0.8 0.2-1.5 0.7-2.1-0.8 0.6-1.3 1.6-1.3 2.6 0 1.8 1.5 3.3 3.3 3.3 1 0 1.9-0.5 2.5-1.3-0.5 0.5-1.2 0.7-2 0.7z"/>
	</g>
	<path id="Layer" class="s0" d="m45.6 18.9q-0.1 1.7-0.8 3.1 0 0.1 0 0.1-0.5 1-1 1.8-1 1.6-2.3 2.8c-2.1 2-4.6 3-7.6 3.1q-0.2 0-0.4 0-0.3 0.1-0.6 0-0.5 0-1 0-0.7 0-1.4-0.1c-2.5-0.5-4.6-1.5-6.3-2.9-2.5-1.9-4.1-4.6-4.7-7.4-1-3.5-0.7-7.3 1.1-10.8 2.1-4.1 5.9-6.9 10.2-7.8-2.7 0.8-5.1 2.4-6.8 4.6q-0.8 1.1-1.4 2.3-0.6 1.2-1 2.4c-0.7 2.5-0.7 5 0 7.4q0.5 1.8 1.4 3.4 0.1 0.1 0.3 0.2 0.5 0.7 1.3 1.3c1.2 1.1 2.8 1.8 4.7 2.1q0.1-0.1 0.1-0.2 0.4-0.2 0.7-0.4 0.2-0.1 0.5-0.2c1.9-0.9 3.5-0.6 4.9-0.4q0.5 0.1 0.9 0.1 0.1 0 0.3 0 0.6 0.1 1.1-0.1c0.7-0.3 1.3-0.3 1.2 0.3-0.1 1.2-1.1 1.5-2.4 1.6q-0.5 0-1.1 0.1-0.5 0-0.9 0.1-0.5 0.1-0.8 0.3 0.1 0 0.1 0 0.8 0.2 1.6 0.2 0.5 0 1.1-0.1c3.5-0.4 8.1-3.5 6.9-8.1-0.3-1-1.3-2-2.5-2.5-0.6-0.2-1.1 0-1.4 0.3q-0.2 0.1-0.3 0.2-0.4 0.4-0.7 0.7-0.3 0.4-0.6 0.8c-0.2 0.2-0.4 0.5-0.5 0.7q-0.9 1.2-1.8 2.4-0.4 0.4-0.8 0.7-0.1 0-0.1 0.1-0.1 0-0.2 0.1-0.2 0.1-0.4 0.2-0.2 0-0.3 0 0 0.1 0 0.1-0.1 0-0.2 0-0.6 0.1-1.1-0.1-0.7-0.2-1.2-0.7-0.3-0.4-0.5-0.8-0.5-0.7-0.5-1.7 0-0.3-0.1-0.6 0-0.2 0-0.4-0.1-0.1-0.1-0.2 0-0.2 0-0.3 0 0 0 0 0.3 0.6 0.9 1.1 0.3 0.3 0.6 0.5 0.6 0.3 1.2 0.3 0.7 0 1.3-0.5c0.4-0.4 0.8-0.9 0.9-1.4q0.5-1.3 0.8-2.6c0.1-0.2 0.2-0.5 0.3-0.7q0.1-0.4 0.3-0.8 0.1-0.4 0.3-0.8 0.3-0.4 0.6-0.8 0.2-0.2 0.5-0.4 0.2-0.2 0.6-0.4c0.2-0.1 0.8-0.2 0.8-0.2 0 0 1.6-0.1 3.6 2 1.8 1.9 2.7 4.4 2.7 6.9z"/>
	<g id="Layer" style="opacity: .3">
		<path id="Layer" class="s1" d="m34.5 29.3q-1 0-2 0 0 0 0 0-0.6-0.1-1.3-0.2c-2.6-0.5-4.7-1.5-6.4-2.8-2.5-2-4-4.6-4.7-7.5-0.9-3.4-0.6-7.3 1.1-10.7q1-2 2.5-3.6-1.8 1.8-3 4.2c-1.8 3.4-2.1 7.2-1.1 10.7 0.6 2.8 2.2 5.5 4.7 7.4 1.7 1.4 3.8 2.4 6.3 2.9q0.7 0.1 1.4 0.1 0 0 0 0 1 0.1 2 0c3.3-0.1 6-1.3 8.2-3.7q-3.2 3-7.7 3.2z"/>
	</g>
	<path id="Layer" class="s0" d="m29.6 17.6l0.5-0.9 0.2 0.3 0.4 1.9 0.4 0.6 0.2 0.6 1.5 0.3 0.6 0.3 1.7-0.7 2.1-2.5 1.1-1.9 1.1-0.6 0.6-0.3-0.2 0.6-0.1 0.1c0 0-0.4 0.4-0.7 1-0.4 0.7-0.7 0.9-0.7 0.9l-0.9 1.2-0.5 0.8-0.9 1.5-1.5 1-1.8 0.5-1.2-1.1-1-0.6-0.8-2.4z"/>
	<g id="Layer" style="opacity: .3">
		<path id="Layer" class="s1" d="m40.8 14.6c-0.5-0.3-1-0.1-1.4 0.2q-0.1 0.2-0.3 0.3-0.4 0.3-0.7 0.7-0.3 0.3-0.6 0.7c-0.2 0.2-0.4 0.5-0.5 0.7q-0.9 1.2-1.8 2.4-0.3 0.4-0.8 0.7 0 0.1-0.1 0.1-0.1 0.1-0.2 0.1-0.2 0.1-0.4 0.2-0.1 0-0.2 0.1 0 0-0.1 0-0.1 0-0.2 0-0.6 0.1-1.1 0-0.6-0.3-1.1-0.8-0.3-0.3-0.6-0.7-0.1-0.3-0.2-0.6 0.1 0.6 0.4 1.1 0.2 0.4 0.5 0.7 0.5 0.6 1.2 0.8 0.5 0.2 1.1 0.1 0.1 0 0.2-0.1 0 0 0 0 0.1 0 0.3 0 0.2-0.1 0.4-0.2 0.1-0.1 0.2-0.1 0-0.1 0.1-0.1 0.4-0.3 0.8-0.7 0.9-1.2 1.8-2.4c0.1-0.3 0.3-0.5 0.5-0.8q0.3-0.3 0.6-0.7 0.3-0.3 0.7-0.7 0.1-0.1 0.3-0.2c0.3-0.4 0.8-0.5 1.4-0.3 1 0.5 2 1.3 2.4 2.2q-0.1-0.2-0.1-0.3c-0.2-1-1.3-2-2.5-2.4z"/>
	</g>
	<path id="Layer" fill-rule="evenodd" class="s0" d="m9.6 43.9c0-0.4 0.1-0.8 0.4-1q0.3-0.4 0.9-0.4 0.6 0 1 0.4c0.2 0.2 0.3 0.6 0.3 1q0 0.7-0.3 1.1-0.4 0.4-1 0.4-0.6 0-0.9-0.4-0.4-0.4-0.4-1.1zm2.2 0q0-0.6-0.2-0.9-0.3-0.4-0.7-0.4-0.4 0-0.6 0.4-0.3 0.3-0.3 0.9 0 0.7 0.3 1 0.2 0.3 0.6 0.4 0.4-0.1 0.7-0.4 0.2-0.3 0.2-1z"/>
	<path id="Layer" class="s0" d="m14.1 45.3h-0.4v-1.5c0-0.2 0-0.4-0.3-0.4v-0.1h0.3c0.2 0 0.3 0.1 0.4 0.2 0.1-0.1 0.3-0.2 0.5-0.2 0.1 0 0.2 0 0.3 0.1q0 0 0.1 0.2l-0.2 0.1q-0.1-0.1-0.3-0.1-0.3 0-0.4 0.2z"/>
	<path id="Layer" fill-rule="evenodd" class="s0" d="m16.8 46.2h-0.4v-2.4c0-0.2 0-0.4-0.3-0.4h-0.1v-0.1h0.4c0.2 0 0.3 0.1 0.4 0.2 0.1-0.1 0.2-0.2 0.6-0.2q0.3 0 0.5 0.3 0.2 0.3 0.2 0.7 0 0.5-0.2 0.8-0.2 0.3-0.6 0.3c-0.2 0-0.4-0.1-0.5-0.1zm0-1.1c0.1 0.1 0.3 0.1 0.4 0.1q0.3 0 0.4-0.2 0.1-0.3 0.1-0.7 0-0.3-0.1-0.6-0.1-0.2-0.4-0.2-0.1 0-0.2 0-0.2 0.1-0.2 0.2z"/>
	<path id="Layer" class="s0" d="m20 43.5c0.1-0.1 0.3-0.2 0.5-0.2 0.2 0 0.4 0 0.5 0.1 0.1 0.2 0.2 0.4 0.2 0.7v1.2h-0.4v-1.2q0-0.4-0.1-0.5-0.1-0.1-0.3-0.1c-0.2 0-0.3 0.1-0.4 0.2v1.6h-0.4v-2.3c0-0.2-0.1-0.4-0.3-0.4h-0.1v-0.1h0.4q0.2 0 0.3 0.1 0.1 0.1 0.1 0.4z"/>
	<path id="Layer" fill-rule="evenodd" class="s0" d="m24.2 45.3h-0.2l-0.1-0.2c-0.1 0.2-0.3 0.3-0.6 0.3q-0.2 0-0.4-0.1c-0.2-0.1-0.2-0.3-0.2-0.5q0-0.4 0.3-0.5 0.3-0.1 0.7-0.1h0.2q0-0.4-0.2-0.6-0.1-0.1-0.3-0.1c-0.2 0-0.4 0.1-0.5 0.3h-0.1c0-0.1 0-0.2 0.1-0.4q0 0 0.2-0.1 0.2 0 0.4 0c0.2 0 0.4 0 0.5 0.2 0.1 0.1 0.2 0.3 0.2 0.7zm-0.3-1h-0.2c-0.4 0-0.7 0.2-0.7 0.4q0.1 0.2 0.2 0.3 0.1 0.1 0.2 0.1c0.3 0 0.4-0.1 0.5-0.2z"/>
	<path id="Layer" class="s0" d="m26.2 45.3h-0.3v-1.5c0-0.2-0.1-0.4-0.3-0.4h-0.1v-0.1h0.4c0.2 0 0.3 0.1 0.3 0.2 0.1-0.1 0.3-0.2 0.6-0.2q0.3 0 0.5 0.1 0.2 0.2 0.2 0.7v1.2h-0.4v-1.2q0-0.4-0.1-0.5-0.2-0.1-0.3-0.1c-0.2 0-0.4 0.1-0.5 0.2z"/>
	<path id="Layer" class="s0" d="m30.5 44.8q0 0.3-0.2 0.4-0.3 0.2-0.6 0.2-0.5 0-0.6-0.2c-0.1-0.1-0.1-0.2-0.1-0.4 0.1 0.2 0.3 0.4 0.6 0.4 0.4 0 0.5-0.1 0.5-0.3 0-0.2-0.1-0.3-0.4-0.4l-0.2-0.1c-0.4-0.1-0.5-0.3-0.5-0.6q0-0.2 0.2-0.4 0.2-0.1 0.5-0.1 0.4 0 0.6 0.2c0.1 0.1 0.1 0.2 0.1 0.4h-0.1c0-0.3-0.2-0.4-0.6-0.4-0.2 0-0.4 0.1-0.4 0.3q0 0.2 0.4 0.3l0.2 0.1c0.4 0.2 0.6 0.3 0.6 0.6z"/>
	<path id="Layer" class="s0" d="m35.6 44.8q0 0.3-0.2 0.4-0.2 0.2-0.6 0.2-0.5 0-0.6-0.2c-0.1-0.1-0.1-0.2-0.1-0.4h0.1c0 0.2 0.2 0.4 0.6 0.4 0.3 0 0.4-0.1 0.4-0.3 0-0.2-0.1-0.3-0.4-0.4l-0.2-0.1c-0.3-0.1-0.5-0.3-0.5-0.6q0-0.2 0.2-0.4 0.2-0.1 0.5-0.1 0.5 0 0.6 0.2c0.1 0.1 0.1 0.2 0.1 0.4h-0.1c0-0.3-0.2-0.4-0.5-0.4-0.3 0-0.5 0.1-0.5 0.3q0 0.2 0.4 0.3l0.2 0.1c0.4 0.2 0.6 0.3 0.6 0.6z"/>
	<path id="Layer" fill-rule="evenodd" class="s0" d="m36.9 44.3q0-0.4 0.3-0.7 0.2-0.3 0.6-0.3 0.5 0 0.7 0.3 0.3 0.3 0.3 0.7 0 0.5-0.3 0.8c-0.1 0.2-0.4 0.3-0.7 0.3q-0.4 0-0.6-0.3-0.3-0.3-0.3-0.8zm1.5 0q0-0.3-0.2-0.6-0.1-0.2-0.4-0.2-0.2 0-0.3 0.2-0.2 0.3-0.2 0.6 0 0.4 0.2 0.7 0.1 0.2 0.3 0.2 0.3 0 0.4-0.2 0.2-0.3 0.2-0.7z"/>
	<path id="Layer" class="s0" d="m41.1 43.3q0.4 0 0.6 0.1 0 0.1 0.1 0.2 0 0.2 0 0.4h-0.1c0-0.4-0.3-0.5-0.6-0.5q-0.3 0-0.4 0.2-0.2 0.3-0.2 0.6 0 0.4 0.2 0.7 0.1 0.2 0.4 0.2c0.3 0 0.5-0.1 0.7-0.3-0.1 0.4-0.4 0.5-0.7 0.5q-0.5 0-0.7-0.3-0.3-0.3-0.3-0.8 0-0.4 0.3-0.7 0.2-0.3 0.7-0.3z"/>
	<path id="Layer" class="s0" d="m43.7 45.3h-0.4v-1.5c0-0.2 0-0.4-0.3-0.4h-0.1v-0.1h0.4q0.2 0 0.3 0.1 0.1 0.1 0.1 0.4zm0-2.4q0 0.2-0.2 0.2c-0.2 0-0.3-0.1-0.3-0.3q0-0.2 0.2-0.2c0.2 0 0.3 0.2 0.3 0.3z"/>
	<path id="Layer" fill-rule="evenodd" class="s0" d="m46.8 44.4h-1.3q0 0.4 0.2 0.6 0.1 0.2 0.4 0.2c0.3 0 0.5-0.1 0.6-0.3h0.1c-0.2 0.4-0.4 0.5-0.8 0.5q-0.4 0-0.6-0.3-0.3-0.3-0.3-0.8 0-0.4 0.3-0.7 0.2-0.3 0.6-0.3c0.6 0 0.8 0.3 0.8 0.9zm-0.4-0.1q0-0.8-0.4-0.8-0.2 0-0.3 0.2-0.1 0.2-0.1 0.6z"/>
	<path id="Layer" class="s0" d="m48.4 43.5h-0.3v-0.2h0.3v-0.3l0.2-0.3h0.2v0.6h0.5v0.2h-0.5v1.3q-0.1 0.4 0.2 0.4c0.2 0 0.3 0 0.4-0.1v0.1q-0.1 0.1-0.2 0.1-0.1 0.1-0.3 0.1c-0.3 0-0.5-0.2-0.5-0.6z"/>
	<path id="Layer" class="s0" d="m51.5 45.4l-0.7-1.7q-0.1-0.3-0.5-0.3v-0.1h0.4q0.4 0 0.5 0.3l0.5 1.2 0.5-1.5h0.2l-0.8 2.3q-0.1 0.4-0.3 0.5-0.1 0.1-0.3 0.1h-0.2v-0.1q0.2 0 0.4-0.1 0.1-0.1 0.2-0.4z"/>
	<path id="Layer" fill-rule="evenodd" class="s0" d="m13.8 35.7q0.5 0.5 0.5 1.4c0 0.6-0.2 1.1-0.5 1.5q-0.6 0.5-1.6 0.5-0.4 0-0.7-0.2-0.2 0-0.4-0.1c-0.1 0.6-0.3 0.9-0.6 1.2-0.4 0.2-0.7 0.3-0.9 0.3q-0.1 0-0.1 0 0 0 0 0c0.4-0.2 0.6-0.5 0.7-0.8 0.1-0.3 0.1-0.5 0.1-0.8v-1.7q0-0.4 0.1-0.7 0.3-0.7 1.1-1 0.4-0.1 0.9-0.1c0.6 0 1.1 0.2 1.4 0.5zm-1.6-0.2q0 0-0.1 0-0.4 0-0.6 0.4c-0.2 0.2-0.2 0.3-0.3 0.5q0 0.3 0 0.6 0 0.4 0 0.6 0.1 0.4 0.3 0.7 0.3 0.4 0.9 0.4 0.5 0.1 0.8-0.4c0.2-0.3 0.3-0.6 0.3-1.1 0-0.4-0.1-0.8-0.2-1q0-0.1-0.1-0.2 0 0 0 0-0.3-0.5-0.9-0.5z"/>
	<path id="Layer" class="s0" d="m16.4 33.7c-0.5 0-0.6 0.2-0.6 0.5v4.1h1.1v0.3h-1.9v-5.1h1.4z"/>
	<path id="Layer" class="s0" d="m19 35.3c-0.3 0-0.4 0.2-0.4 0.5v2.5h1.5v0.3h-3.4v-0.3h1v-3.1h1.4v0.1zm-1.3-0.8c-0.3 0-0.5-0.2-0.5-0.4 0-0.3 0.2-0.5 0.5-0.5 0.2 0 0.4 0.2 0.4 0.5 0 0.2-0.2 0.4-0.4 0.4zm1 0c-0.2 0-0.4-0.2-0.4-0.4 0-0.3 0.2-0.5 0.4-0.5 0.3 0 0.5 0.2 0.5 0.5 0 0.2-0.2 0.4-0.5 0.4z"/>
	<path id="Layer" class="s0" d="m22.2 35.3c-0.4 0-0.4 0.2-0.4 0.5v1.1c0 0.5-0.2 0.9-0.5 1.2-0.3 0.3-0.6 0.5-1 0.5h-0.6v-0.3h0.2c0.2 0 0.5-0.1 0.7-0.3 0.1-0.2 0.3-0.5 0.3-0.9v-1.9h1.4v0.1zm-1.9 4.8c-0.2 0-0.4-0.2-0.4-0.4 0-0.3 0.2-0.5 0.4-0.5 0.3 0 0.5 0.2 0.5 0.5 0 0.2-0.2 0.4-0.5 0.4zm1.1 0c-0.2 0-0.4-0.2-0.4-0.4 0-0.3 0.2-0.5 0.4-0.5 0.3 0 0.4 0.2 0.4 0.5 0 0.2-0.1 0.4-0.4 0.4z"/>
	<path id="Layer" class="s0" d="m23.8 32.1c0.1 0.1 0.1 0.2 0.1 0.4h-0.1c0-0.2-0.2-0.3-0.4-0.3-0.4 0-0.5 0.2-0.5 0.5 0 0.3 0.1 0.5 0.5 0.5h0.5v0.2h-1.6v-0.2h0.5q-0.3-0.2-0.3-0.5c0-0.4 0.3-0.7 0.8-0.7q0.4 0.1 0.5 0.1zm-0.2 4.2c0 0.2 0 0.5 0.1 0.7 0 0.3 0.2 0.5 0.5 0.7q0.1 0 0 0 0 0.1-0.1 0c-0.1 0-0.4-0.1-0.7-0.3-0.3-0.2-0.5-0.5-0.6-1.1v-1.7c0-0.3-0.1-0.5-0.4-0.5h-0.1v-0.1h1.3zm2.3-2.7c-0.3 0-0.4 0.2-0.4 0.4v3.1q0 1.4-1.6 1.4c-0.6 0-1-0.2-1.2-0.4v-0.4c0.2 0.3 0.5 0.5 0.9 0.5 0.3 0 0.5 0 0.7-0.2q0.3-0.3 0.3-0.9v-3.6h1.4v0.1z"/>
	<path id="Layer" class="s0" d="m27.8 33.7c-0.4 0-0.4 0.2-0.4 0.5v4.4h-0.9v-5.1l1.3 0.1z"/>
	<path id="Layer" class="s0" d="m33.1 35.3c0.2 0.2 0.2 0.4 0.2 0.9h-0.2c0-0.6-0.4-0.8-1-0.8-0.7 0-1 0.6-1 1.4 0 0.7 0.2 1.4 0.9 1.5h2.3v0.3h-2.5c-0.3 0-0.7 0.1-0.9 0.3-0.3 0.3-0.5 0.6-0.5 1.1 0 0.5 0.2 0.8 0.5 1 0.3 0.3 0.7 0.4 1.1 0.4h0.4c0.2 0 0.5 0 0.6-0.1 0.2-0.1 0.3-0.2 0.3-0.6v-0.1h0.1v0.1c0 0.5 0 0.8-0.2 0.9-0.1 0.1-0.4 0.1-0.8 0.1h-0.4c-1.6 0-2.4-0.7-2.4-1.7 0-0.8 0.5-1.4 1.5-1.7-0.6-0.3-0.9-0.9-0.9-1.5 0-0.5 0.2-0.9 0.5-1.2 0.3-0.3 0.7-0.5 1.3-0.5q0.8 0 1.1 0.2z"/>
	<path id="Layer" fill-rule="evenodd" class="s0" d="m38.2 35.7c0.4 0.4 0.5 0.8 0.6 1.3v0.2c0 0.4 0.1 0.7 0.2 0.8 0.2 0.2 0.4 0.3 0.6 0.3h0.5v0.3h-0.8c-0.2-0.1-0.4-0.1-0.6-0.3q-0.1-0.1-0.2-0.2c-0.1 0.4-0.4 0.7-1 0.8q-0.4 0.2-0.8 0.2c-0.6 0-1.1-0.2-1.5-0.6q-0.2-0.2-0.3-0.4-0.1 0.3-0.4 0.4-0.2 0-0.3 0.1h-0.7v-0.3h0.4q0.3 0 0.5-0.2 0.2-0.3 0.3-0.8v-0.2c0-0.6 0.2-1 0.6-1.4 0.3-0.4 0.8-0.5 1.5-0.5 0.6 0 1.1 0.2 1.4 0.5zm-2.3 0.2c-0.2 0.3-0.3 0.6-0.3 1.1 0 0.6 0.1 0.9 0.3 1.3q0.3 0.4 0.9 0.4 0.5 0.1 0.8-0.4c0.2-0.3 0.3-0.6 0.3-1.1 0-0.6-0.1-0.9-0.3-1.2q-0.3-0.5-0.9-0.5-0.5 0-0.8 0.4z"/>
	<path id="Layer" class="s0" d="m41.9 35.3c-0.4 0-0.4 0.2-0.4 0.5v2.5h1.5v0.3h-3.4v-0.3h1v-3.1h1.4v0.1zm-1.4-0.8c-0.2 0-0.4-0.2-0.4-0.4 0-0.3 0.2-0.5 0.4-0.5 0.3 0 0.5 0.2 0.5 0.5 0 0.2-0.2 0.4-0.5 0.4zm1.1 0c-0.2 0-0.4-0.2-0.4-0.4 0-0.3 0.2-0.5 0.4-0.5 0.2 0 0.4 0.2 0.4 0.5 0 0.2-0.2 0.4-0.4 0.4z"/>
	<path id="Layer" fill-rule="evenodd" class="s0" d="m43.9 34.9c1.1 1 1.7 1.7 2.2 2.2q0.3 0.3 0.5 0.5l0.3 0.3c0.1 0.1 0.2 0.2 0.3 0.4h1v0.3h-0.9c0.2 0.3 0.2 0.7 0.1 1 0 0.3-0.2 0.5-0.3 0.7q0 0.1-0.1 0 0 0 0 0 0.2-0.6-0.1-1c-0.1-0.2-0.3-0.4-0.4-0.6l-0.1-0.1h-4.5v-0.3h4.2l-2.4-2.4c-0.2-0.2-0.4-0.3-0.6-0.1l-0.1 0.1-0.1-0.1zm0.5 5.3c-0.3 0-0.5-0.2-0.5-0.5 0-0.2 0.2-0.4 0.5-0.4 0.2 0 0.4 0.2 0.4 0.4 0 0.3-0.2 0.5-0.4 0.5z"/>
	<path id="Layer" fill-rule="evenodd" class="s0" d="m52.1 35.7q0.6 0.5 0.6 1.4 0 0.9-0.6 1.5-0.6 0.5-1.5 0.5c-0.6 0-1.1-0.2-1.5-0.6q-0.2-0.2-0.3-0.4-0.1 0.3-0.4 0.4-0.2 0-0.3 0.1h-0.7v-0.3h0.4q0.3 0 0.5-0.2 0.3-0.3 0.3-0.8v-0.2c0-0.6 0.2-1 0.6-1.4 0.3-0.4 0.9-0.5 1.5-0.5 0.6 0 1.1 0.2 1.4 0.5zm-2.3 0.2c-0.2 0.3-0.3 0.6-0.3 1.1 0 0.6 0.1 0.9 0.3 1.3q0.4 0.4 0.9 0.4 0.5 0.1 0.8-0.4c0.3-0.3 0.3-0.6 0.3-1.1 0-0.6-0.1-0.9-0.3-1.2q-0.3-0.5-0.8-0.5-0.6 0-0.9 0.4z"/>
</svg>