<svg width="16" height="16" viewBox="0 0 16 16" fill="none" xmlns="http://www.w3.org/2000/svg">
<path fill-rule="evenodd" clip-rule="evenodd" d="M4.66665 1.83331C3.59 1.83331 2.61641 2.1024 1.90975 2.75858C1.19639 3.42099 0.833313 4.40468 0.833313 5.66665V10.3333C0.833313 11.5953 1.19639 12.579 1.90975 13.2414C2.61641 13.8976 3.59 14.1666 4.66665 14.1666H11.3333C12.41 14.1666 13.3836 13.8976 14.0902 13.2414C14.8036 12.579 15.1666 11.5953 15.1666 10.3333V5.66665C15.1666 4.40468 14.8036 3.42099 14.0902 2.75858C13.3836 2.1024 12.41 1.83331 11.3333 1.83331H4.66665ZM12.819 5.57485C13.0374 5.40601 13.0777 5.09199 12.9088 4.87349C12.74 4.65497 12.426 4.61471 12.2075 4.78356L8.50945 7.64105C8.20938 7.87298 7.79051 7.87298 7.49038 7.64105L3.79238 4.78356C3.57387 4.61471 3.25986 4.65497 3.09101 4.87349C2.92217 5.09199 2.96243 5.40601 3.18094 5.57485L6.87898 8.43238C7.53925 8.94251 8.46065 8.94251 9.12091 8.43238L12.819 5.57485Z" fill="white"/>
</svg>
