<svg width="27" height="23" viewBox="0 0 27 23" fill="none" xmlns="http://www.w3.org/2000/svg">
<path d="M10.25 9.76513C13.0114 9.76513 15.25 7.90873 15.25 5.61874C15.25 3.32875 13.0114 1.47235 10.25 1.47235C7.48858 1.47235 5.25 3.32875 5.25 5.61874C5.25 7.90873 7.48858 9.76513 10.25 9.76513Z" stroke="black" stroke-width="2"/>
<path d="M17.75 8.72853C19.8211 8.72853 21.5 7.33623 21.5 5.61874C21.5 3.90126 19.8211 2.50895 17.75 2.50895" stroke="black" stroke-width="2" stroke-linecap="round"/>
<path d="M10.25 21.1677C15.0825 21.1677 19 19.3113 19 17.0213C19 14.7313 15.0825 12.8749 10.25 12.8749C5.41751 12.8749 1.5 14.7313 1.5 17.0213C1.5 19.3113 5.41751 21.1677 10.25 21.1677Z" stroke="black" stroke-width="2"/>
<path d="M21.5 13.9115C23.6927 14.3103 25.25 15.3202 25.25 16.503C25.25 17.57 23.9829 18.4963 22.125 18.9602" stroke="black" stroke-width="2" stroke-linecap="round"/>
</svg>
