<svg width="16" height="16" viewBox="0 0 16 16" fill="none" xmlns="http://www.w3.org/2000/svg">
<path fill-rule="evenodd" clip-rule="evenodd" d="M5.92753 14.0525L5.96407 14.0877L5.96693 14.0905C6.63641 14.732 7.28553 15.1718 8.01973 15.1633C8.7506 15.1549 9.39707 14.7037 10.0661 14.0522C10.9831 13.1637 12.1697 11.9652 13.0269 10.5433C13.8873 9.11609 14.4426 7.41949 14.0248 5.55732C12.6131 -0.736065 3.39422 -0.743438 1.97517 5.55063C1.56921 7.36002 2.08209 9.01515 2.89999 10.4179C3.71481 11.8154 4.85493 13.002 5.76929 13.8981C5.82257 13.9503 5.87515 14.0016 5.9269 14.0519L5.92753 14.0525ZM8 4.16677C6.8034 4.16677 5.83333 5.13682 5.83333 6.33344C5.83333 7.53002 6.8034 8.50009 8 8.50009C9.1966 8.50009 10.1667 7.53002 10.1667 6.33344C10.1667 5.13682 9.1966 4.16677 8 4.16677Z" fill="white"/>
</svg>
