<svg width="14" height="16" viewBox="0 0 14 16" fill="none" xmlns="http://www.w3.org/2000/svg">
<path d="M1.80273 5C2.46284 3.85548 3.48226 2.96085 4.70281 2.45494C5.92335 1.94903 7.27675 1.86014 8.55298 2.20207C9.8292 2.54399 10.9569 3.2976 11.761 4.34595C12.5651 5.39431 13.0007 6.67877 13.0002 8" stroke="#091F47" stroke-width="1.5" stroke-linecap="round" stroke-linejoin="round"/>
<path d="M12.1975 11C11.5374 12.1445 10.518 13.0392 9.29743 13.5451C8.07689 14.051 6.72349 14.1399 5.44726 13.7979C4.17103 13.456 3.04335 12.7024 2.23922 11.654C1.43509 10.6057 0.999486 9.32124 1 8" stroke="#091F47" stroke-width="1.5" stroke-linecap="round" stroke-linejoin="round"/>
<path d="M1.75 1.25V5H5.5" stroke="#091F47" stroke-width="1.5" stroke-linecap="round" stroke-linejoin="round"/>
<path d="M12.25 14.75V11H8.5" stroke="#091F47" stroke-width="1.5" stroke-linecap="round" stroke-linejoin="round"/>
</svg>
