<svg width="28" height="18" viewBox="0 0 28 18" fill="none" xmlns="http://www.w3.org/2000/svg">
<path d="M14 10.9773C15.3807 10.9773 16.5 10.0491 16.5 8.9041C16.5 7.75907 15.3807 6.8309 14 6.8309C12.6193 6.8309 11.5 7.75907 11.5 8.9041C11.5 10.0491 12.6193 10.9773 14 10.9773Z" fill="black"/>
<g opacity="0.4">
<path d="M5.83361 1.01774C6.19936 1.32166 6.19877 1.81391 5.83229 2.11722C3.73402 3.8538 2.4375 6.25267 2.4375 8.9041C2.4375 11.5866 3.76454 14.0106 5.90629 15.7518C6.27603 16.0524 6.28193 16.5446 5.91946 16.8512C5.55701 17.1578 4.96345 17.1627 4.59371 16.8621C2.10705 14.8406 0.5625 12.0213 0.5625 8.9041C0.5625 5.82316 2.07151 3.03298 4.50779 1.01665C4.87426 0.713344 5.46786 0.713831 5.83361 1.01774Z" fill="black"/>
<path d="M22.2705 1.09278C22.6402 0.792199 23.2337 0.797092 23.5962 1.10371C25.9714 3.1129 27.4375 5.86732 27.4375 8.90411C27.4375 11.9771 25.9364 14.7608 23.5112 16.7758C23.1455 17.0798 22.5519 17.0803 22.1855 16.777C21.819 16.4737 21.8184 15.9814 22.1841 15.6774C24.2727 13.942 25.5625 11.5487 25.5625 8.90411C25.5625 6.29056 24.3027 3.92253 22.2574 2.19221C21.8949 1.88559 21.9007 1.39336 22.2705 1.09278Z" fill="black"/>
</g>
<g opacity="0.8">
<path d="M9.38654 4.2265C9.74032 4.54001 9.72065 5.03199 9.3426 5.32537C8.15646 6.24586 7.4375 7.5049 7.4375 8.88565C7.4375 10.2825 8.17336 11.5549 9.38445 12.4781C9.76564 12.7687 9.7906 13.2605 9.4402 13.5767C9.08981 13.8927 8.49674 13.9135 8.11555 13.6229C6.54959 12.4292 5.5625 10.7517 5.5625 8.88565C5.5625 7.04134 6.52685 5.38097 8.06145 4.19006C8.4395 3.89667 9.03276 3.91299 9.38654 4.2265Z" fill="black"/>
<path d="M18.6786 4.26591C19.0365 3.95563 19.6299 3.94469 20.0041 4.24148C21.5006 5.42851 22.4375 7.06788 22.4375 8.88565C22.4375 10.7252 21.4781 12.3817 19.9505 13.5719C19.5732 13.8659 18.9799 13.8505 18.6254 13.5377C18.2709 13.2247 18.2894 12.7328 18.6666 12.4387C19.8472 11.5189 20.5625 10.2628 20.5625 8.88565C20.5625 7.5245 19.8639 6.28196 18.708 5.36512C18.3339 5.06833 18.3207 4.57621 18.6786 4.26591Z" fill="black"/>
</g>
</svg>
