<svg width="16" height="16" viewBox="0 0 16 16" fill="none" xmlns="http://www.w3.org/2000/svg">
<path fill-rule="evenodd" clip-rule="evenodd" d="M2.66665 7.33331C2.66665 4.75599 4.75599 2.66665 7.33331 2.66665C9.91065 2.66665 12 4.75599 12 7.33331C12 9.91065 9.91065 12 7.33331 12C4.75599 12 2.66665 9.91065 2.66665 7.33331ZM7.33331 1.33331C4.01961 1.33331 1.33331 4.01961 1.33331 7.33331C1.33331 10.647 4.01961 13.3333 7.33331 13.3333C8.74998 13.3333 10.052 12.8423 11.0784 12.0212L13.5286 14.4714C13.7889 14.7317 14.211 14.7317 14.4714 14.4714C14.7317 14.211 14.7317 13.7889 14.4714 13.5286L12.0212 11.0784C12.8423 10.052 13.3333 8.74998 13.3333 7.33331C13.3333 4.01961 10.647 1.33331 7.33331 1.33331Z" fill="white"/>
</svg>
