<svg width="18" height="19" viewBox="0 0 18 19" fill="none" xmlns="http://www.w3.org/2000/svg">
<path fill-rule="evenodd" clip-rule="evenodd" d="M10.3523 4.5C10.3523 3.11928 11.4767 2 12.8636 2C14.2506 2 15.375 3.11928 15.375 4.5C15.375 5.88071 14.2506 7 12.8636 7C12.1633 7 11.5304 6.71447 11.0753 6.2551L7.59877 8.62212C7.63088 8.78187 7.64775 8.94687 7.64775 9.1154C7.64775 9.44915 7.58175 9.7682 7.46219 10.0598L11.2742 12.5643C11.7069 12.2121 12.2605 12 12.8636 12C14.2506 12 15.375 13.1193 15.375 14.5C15.375 15.8807 14.2506 17 12.8636 17C11.4767 17 10.3523 15.8807 10.3523 14.5C10.3523 14.1384 10.4297 13.7941 10.5688 13.4833L6.78755 10.999C6.34647 11.3823 5.7687 11.6154 5.13636 11.6154C3.74938 11.6154 2.625 10.4961 2.625 9.1154C2.625 7.73467 3.74938 6.61539 5.13636 6.61539C5.93393 6.61539 6.6439 6.98544 7.10359 7.56138L10.4729 5.26731C10.3946 5.02519 10.3523 4.7672 10.3523 4.5Z" fill="#009CDE"/>
</svg>
