<svg width="24" height="22" viewBox="0 0 24 22" fill="none" xmlns="http://www.w3.org/2000/svg">
<path d="M2 20.619C2 16.9634 5.25964 13.9392 9.5 13.4363M21.8408 14.6106C21.7555 14.6149 21.6696 14.6171 21.5834 14.6171C20.3028 14.6171 19.1346 14.1427 18.25 13.3628C17.3654 14.1427 16.1972 14.617 14.9166 14.617C14.8304 14.617 14.7445 14.6148 14.6593 14.6105C14.5553 15.0061 14.5 15.4209 14.5 15.8484C14.5 18.1437 16.0935 20.0722 18.25 20.619C20.4065 20.0722 22 18.1437 22 15.8484C22 15.4209 21.9448 15.0061 21.8408 14.6106ZM15.75 6.1066C15.75 8.39659 13.5114 10.253 10.75 10.253C7.98857 10.253 5.75 8.39659 5.75 6.1066C5.75 3.81661 7.98857 1.96021 10.75 1.96021C13.5114 1.96021 15.75 3.81661 15.75 6.1066Z" stroke="black" stroke-width="2.33" stroke-linecap="round" stroke-linejoin="round"/>
</svg>
